<?xml version="1.0" encoding="utf-8"?>
<!-- Generator: Adobe Illustrator 27.9.6, SVG Export Plug-In . SVG Version: 9.03 Build 54986)  -->
<svg version="1.1" id="レイヤー_1" xmlns="http://www.w3.org/2000/svg" xmlns:xlink="http://www.w3.org/1999/xlink" x="0px"
	 y="0px" width="62px" height="62px" viewBox="0 0 62 62" style="enable-background:new 0 0 62 62;" xml:space="preserve">
<style type="text/css">
	.st0{fill:#999999;}
</style>
<g>
	<g>
		<rect x="13.1" y="45" class="st0" width="20" height="12"/>
	</g>
	<g>
		<rect x="37.1" y="45" class="st0" width="12" height="12"/>
	</g>
	<g>
		<rect x="1.1" y="14" class="st0" width="60" height="24"/>
	</g>
	<g>
		<polygon points="62.1,52 53.1,52 53.1,50 60.1,50 60.1,2 2.1,2 2.1,50 9.1,50 9.1,52 0.1,52 0.1,0 62.1,0 		"/>
	</g>
	<g>
		<rect x="4.1" y="4" width="2" height="2"/>
	</g>
	<g>
		<rect x="8.1" y="4" width="2" height="2"/>
	</g>
	<g>
		<rect x="12.1" y="4" width="2" height="2"/>
	</g>
	<g>
		<rect x="1.1" y="8" width="60" height="2"/>
	</g>
	<g>
		<path d="M34.1,58h-22V44h22V58z M14.1,56h18V46h-18V56z"/>
	</g>
	<g>
		<rect x="13.1" y="52" width="20" height="2"/>
	</g>
	<g>
		<rect x="16.1" y="45" width="2" height="12"/>
	</g>
	<g>
		<rect x="28.1" y="45" width="2" height="12"/>
	</g>
	<g>
		<rect x="20.1" y="45" width="2" height="8"/>
	</g>
	<g>
		<rect x="13.1" y="48" width="20" height="2"/>
	</g>
	<g>
		<path d="M50.1,58h-14V44h14V58z M38.1,56h10V46h-10V56z"/>
	</g>
	<g>
		<rect x="40.1" y="45" width="2" height="12"/>
	</g>
	<g>
		<rect x="44.1" y="45" width="2" height="12"/>
	</g>
	<g>
		<rect x="37.1" y="48" width="12" height="2"/>
	</g>
	<g>
		<rect x="37.1" y="52" width="12" height="2"/>
	</g>
	<g>
		<rect x="24.1" y="45" width="2" height="8"/>
	</g>
	<g>
		<path d="M51.1,62h-40c-1.7,0-3-1.3-3-3V43c0-1.7,1.3-3,3-3h13.8c0.2,0,0.4-0.1,0.6-0.2l2-1.3c0.5-0.3,1.1-0.5,1.7-0.5h22
			c1.7,0,3,1.3,3,3v18C54.1,60.7,52.7,62,51.1,62z M11.1,42c-0.6,0-1,0.4-1,1v16c0,0.6,0.4,1,1,1h40c0.6,0,1-0.4,1-1V41
			c0-0.6-0.4-1-1-1h-22c-0.2,0-0.4,0.1-0.6,0.2l-2,1.3C26,41.8,25.4,42,24.8,42H11.1z"/>
	</g>
	<g>
		<polygon points="37.7,34.2 36.4,32.6 45.5,25.4 36.4,18.2 37.7,16.6 48.7,25.4 		"/>
	</g>
	<g>
		<polygon points="24.4,34.2 13.5,25.4 24.4,16.6 25.7,18.2 16.7,25.4 25.7,32.6 		"/>
	</g>
	<g>
		<rect x="20.1" y="24.4" transform="matrix(0.3212 -0.947 0.947 0.3212 -2.9892 46.6597)" width="22" height="2"/>
	</g>
</g>
</svg>
