<?xml version="1.0" encoding="utf-8"?>
<!-- Generator: Adobe Illustrator 27.9.6, SVG Export Plug-In . SVG Version: 9.03 Build 54986)  -->
<svg version="1.1" id="レイヤー_1" xmlns="http://www.w3.org/2000/svg" xmlns:xlink="http://www.w3.org/1999/xlink" x="0px"
	 y="0px" width="62px" height="62px" viewBox="0 0 62 62" style="enable-background:new 0 0 62 62;" xml:space="preserve">
<style type="text/css">
	.st0{fill:#999999;}
</style>
<g>
	<g>
		<path class="st0" d="M31,0c-5.5,0-10,4.5-10,10v5h1c0-1.7,1.3-3,3-3v-1c1.9,0,3.8-0.8,5.1-2.1L31,8l0.9,0.9
			c1.4,1.4,3.2,2.1,5.1,2.1v1c1.7,0,3,1.3,3,3h1v-5C41,4.5,36.5,0,31,0z"/>
	</g>
	<g>
		<path class="st0" d="M14,30C8.5,30,4,34.5,4,40v5h1c0-1.7,1.3-3,3-3v-2h12v2c1.7,0,3,1.3,3,3h1v-5C24,34.5,19.5,30,14,30z"/>
	</g>
	<g>
		<path class="st0" d="M48,30c-5.5,0-10,4.5-10,10v5h1c0-1.7,1.3-3,3-3c0-1.1,0.9-2,2-2h8c1.1,0,2,0.9,2,2c1.7,0,3,1.3,3,3h1v-5
			C58,34.5,53.5,30,48,30z"/>
	</g>
	<g>
		<path d="M31,23c-3.9,0-7-3.1-7-7v-6h1c1.7,0,3.2-0.6,4.4-1.8L31,6.6l1.6,1.6C33.8,9.4,35.3,10,37,10h1v6C38,19.9,34.9,23,31,23z
			 M26,11.9V16c0,2.8,2.2,5,5,5c2.8,0,5-2.2,5-5v-4.1c-1.8-0.2-3.5-1-4.8-2.4L31,9.4l-0.2,0.2C29.5,10.9,27.8,11.7,26,11.9z"/>
	</g>
	<g>
		<path d="M25,19c-2.2,0-4-1.8-4-4s1.8-4,4-4v2c-1.1,0-2,0.9-2,2s0.9,2,2,2V19z"/>
	</g>
	<g>
		<path d="M37,19v-2c1.1,0,2-0.9,2-2s-0.9-2-2-2v-2c2.2,0,4,1.8,4,4S39.2,19,37,19z"/>
	</g>
	<g>
		<polygon points="31,28.4 27,24.4 27,21 29,21 29,23.6 31,25.6 33,23.6 33,21 35,21 35,24.4 		"/>
	</g>
	<g>
		<path d="M45,32H17v-2.7c0-2.4,1.7-4.4,4-4.9l6.8-1.4l0.4,2l-6.8,1.4C20,26.6,19,27.9,19,29.3V30h24v-0.7c0-1.4-1-2.7-2.4-2.9
			L33.8,25l0.4-2l6.8,1.4c2.3,0.5,4,2.5,4,4.9V32z"/>
	</g>
	<g>
		<path d="M14,53c-3.9,0-7-3.1-7-7v-7h14v7C21,49.9,17.9,53,14,53z M9,41v5c0,2.8,2.2,5,5,5c2.8,0,5-2.2,5-5v-5H9z"/>
	</g>
	<g>
		<path d="M8,49c-2.2,0-4-1.8-4-4s1.8-4,4-4v2c-1.1,0-2,0.9-2,2s0.9,2,2,2V49z"/>
	</g>
	<g>
		<path d="M20,49v-2c1.1,0,2-0.9,2-2s-0.9-2-2-2v-2c2.2,0,4,1.8,4,4S22.2,49,20,49z"/>
	</g>
	<g>
		<polygon points="14,58.4 10,54.4 10,51 12,51 12,53.6 14,55.6 16,53.6 16,51 18,51 18,54.4 		"/>
	</g>
	<g>
		<path d="M28,62H0v-2.7c0-2.4,1.7-4.4,4-4.9l6.8-1.4l0.4,2l-6.8,1.4C3,56.6,2,57.9,2,59.3V60h24v-0.7c0-1.4-1-2.7-2.4-2.9L16.8,55
			l0.4-2l6.8,1.4c2.3,0.5,4,2.5,4,4.9V62z"/>
	</g>
	<g>
		<path d="M48,53c-3.9,0-7-3.1-7-7v-4c0-1.7,1.3-3,3-3h8c1.7,0,3,1.3,3,3v4C55,49.9,51.9,53,48,53z M44,41c-0.6,0-1,0.4-1,1v4
			c0,2.8,2.2,5,5,5c2.8,0,5-2.2,5-5v-4c0-0.6-0.4-1-1-1H44z"/>
	</g>
	<g>
		<path d="M42,49c-2.2,0-4-1.8-4-4s1.8-4,4-4v2c-1.1,0-2,0.9-2,2s0.9,2,2,2V49z"/>
	</g>
	<g>
		<path d="M54,49v-2c1.1,0,2-0.9,2-2s-0.9-2-2-2v-2c2.2,0,4,1.8,4,4S56.2,49,54,49z"/>
	</g>
	<g>
		<path d="M48,58c-2.2,0-4-1.8-4-4v-3h2v3c0,1.1,0.9,2,2,2c1.1,0,2-0.9,2-2v-3h2v3C52,56.2,50.2,58,48,58z"/>
	</g>
	<g>
		<path d="M62,62H34v-2.7c0-2.4,1.7-4.4,4-4.9l6.8-1.4l0.4,2l-6.8,1.4C37,56.6,36,57.9,36,59.3V60h24v-0.7c0-1.4-1-2.7-2.4-2.9
			L50.8,55l0.4-2l6.8,1.4c2.3,0.5,4,2.5,4,4.9V62z"/>
	</g>
	<g>
		<rect x="30" y="42" width="2" height="8"/>
	</g>
	<g>
		<rect x="27" y="45" width="8" height="2"/>
	</g>
	<g>
		<rect x="30" y="38" width="2" height="2"/>
	</g>
	<g>
		<rect x="30" y="34" width="2" height="2"/>
	</g>
	<g>
		<rect x="10" y="10" width="2" height="8"/>
	</g>
	<g>
		<rect x="7" y="13" width="8" height="2"/>
	</g>
	<g>
		<rect x="10" y="20" width="2" height="2"/>
	</g>
	<g>
		<rect x="10" y="24" width="2" height="2"/>
	</g>
	<g>
		<rect x="50" y="10" width="2" height="8"/>
	</g>
	<g>
		<rect x="47" y="13" width="8" height="2"/>
	</g>
	<g>
		<rect x="50" y="20" width="2" height="2"/>
	</g>
	<g>
		<rect x="50" y="24" width="2" height="2"/>
	</g>
</g>
</svg>
