<?xml version="1.0" encoding="utf-8"?>
<!-- Generator: Adobe Illustrator 27.9.6, SVG Export Plug-In . SVG Version: 9.03 Build 54986)  -->
<svg version="1.1" id="レイヤー_1" xmlns="http://www.w3.org/2000/svg" xmlns:xlink="http://www.w3.org/1999/xlink" x="0px"
	 y="0px" width="62px" height="61px" viewBox="0 0 62 61" style="enable-background:new 0 0 62 61;" xml:space="preserve">
<style type="text/css">
	.st0{fill:#999999;}
</style>
<g>
	<g>
		<rect x="18" y="55" width="2" height="6"/>
	</g>
	<g>
		<rect x="34" y="55" width="2" height="6"/>
	</g>
	<g>
		<path d="M49,56H5c-2.8,0-5-2.2-5-5V23c0-2.8,2.2-5,5-5h32v2H5c-1.7,0-3,1.3-3,3v28c0,1.7,1.3,3,3,3h44c1.7,0,3-1.3,3-3v-6h2v6
			C54,53.8,51.8,56,49,56z"/>
	</g>
	<g>
		<rect x="1" y="48" width="52" height="2"/>
	</g>
	<g>
		<path d="M57,46H41c-2.8,0-5-2.2-5-5V5c0-2.8,2.2-5,5-5h16c2.8,0,5,2.2,5,5v36C62,43.8,59.8,46,57,46z M41,2c-1.7,0-3,1.3-3,3v36
			c0,1.7,1.3,3,3,3h16c1.7,0,3-1.3,3-3V5c0-1.7-1.3-3-3-3H41z"/>
	</g>
	<g>
		<rect x="46" y="40" width="6" height="2"/>
	</g>
	<g>
		<rect x="37" y="36" width="24" height="2"/>
	</g>
	<g>
		<rect x="37" y="6" width="24" height="2"/>
	</g>
	<g>
		<path class="st0" d="M58,22H40V10h18V22z"/>
	</g>
	<g>
		<path class="st0" d="M58,34H40v-9h18V34z"/>
	</g>
	<g>
		<rect x="56" y="32" width="2" height="2"/>
	</g>
	<g>
		<rect x="40" y="32" width="14" height="2"/>
	</g>
	<g>
		<rect x="40" y="28" width="18" height="2"/>
	</g>
	<g>
		<rect x="40" y="24" width="18" height="2"/>
	</g>
	<g>
		<rect x="4" y="22" class="st0" width="32" height="12"/>
	</g>
	<g>
		<path class="st0" d="M18,46H4V36h14V46z"/>
	</g>
	<g>
		<path class="st0" d="M34,46H20V36h14V46z"/>
	</g>
	<g>
		<rect x="20" y="36" width="14" height="2"/>
	</g>
	<g>
		<rect x="20" y="40" width="14" height="2"/>
	</g>
	<g>
		<rect x="20" y="44" width="10" height="2"/>
	</g>
	<g>
		<rect x="32" y="44" width="2" height="2"/>
	</g>
</g>
</svg>
