<svg width="16" height="16" fill="none" xmlns="http://www.w3.org/2000/svg"><path d="M11.2 14.4V7.2H1.6v7.2h9.6Zm1.6-4V8.8h1.6V1.6H4.8v4H3.2v-4c0-.44.157-.817.47-1.13A1.54 1.54 0 0 1 4.8 0h9.6c.44 0 .817.157 1.13.47.313.313.47.69.47 1.13v7.2c0 .44-.157.817-.47 1.13a1.54 1.54 0 0 1-1.13.47h-1.6ZM1.6 16a1.54 1.54 0 0 1-1.13-.47A1.54 1.54 0 0 1 0 14.4V7.2c0-.44.157-.817.47-1.13A1.54 1.54 0 0 1 1.6 5.6h9.6c.44 0 .817.157 1.13.47.313.313.47.69.47 1.13v7.2c0 .44-.157.817-.47 1.13a1.54 1.54 0 0 1-1.13.47H1.6Z" fill="#fff"/></svg>