<svg width="19" height="19" fill="none" xmlns="http://www.w3.org/2000/svg"><path d="M9.502 19a9.254 9.254 0 0 1-3.705-.748 9.596 9.596 0 0 1-3.017-2.03 9.591 9.591 0 0 1-2.032-3.016A9.245 9.245 0 0 1 0 9.502c0-1.314.25-2.55.748-3.705a9.596 9.596 0 0 1 2.03-3.017A9.591 9.591 0 0 1 5.794.748 9.245 9.245 0 0 1 9.498 0c1.314 0 2.55.25 3.705.748a9.596 9.596 0 0 1 3.018 2.03 9.592 9.592 0 0 1 2.03 3.016A9.245 9.245 0 0 1 19 9.498c0 1.314-.25 2.55-.748 3.705a9.596 9.596 0 0 1-2.03 3.018 9.592 9.592 0 0 1-3.016 2.03A9.245 9.245 0 0 1 9.502 19ZM9.5 17.5c2.233 0 4.125-.775 5.675-2.325 1.55-1.55 2.325-3.442 2.325-5.675 0-2.233-.775-4.125-2.325-5.675C13.625 2.275 11.733 1.5 9.5 1.5c-2.233 0-4.125.775-5.675 2.325C2.275 5.375 1.5 7.267 1.5 9.5c0 2.233.775 4.125 2.325 5.675C5.375 16.725 7.267 17.5 9.5 17.5Z" fill="#fff"/><path fill="#fff" d="M6 9h7v1H6z"/></svg>