<svg width="26" height="26" fill="none" xmlns="http://www.w3.org/2000/svg"><path fill-rule="evenodd" clip-rule="evenodd" d="M13 26c7.18 0 13-5.82 13-13S20.18 0 13 0 0 5.82 0 13s5.82 13 13 13Zm6.5-15.73c0-2.08-1.69-3.77-3.77-3.77h-5.46a3.77 3.77 0 0 0-3.77 3.77v5.46c0 2.08 1.69 3.77 3.77 3.77h5.46a3.77 3.77 0 0 0 3.77-3.77v-5.46ZM8.485 8.485A2.34 2.34 0 0 1 10.14 7.8h5.72a2.339 2.339 0 0 1 2.34 2.34v5.72a2.34 2.34 0 0 1-2.34 2.34h-5.72a2.339 2.339 0 0 1-2.34-2.34v-5.72c0-.62.247-1.216.685-1.655Zm8.502.528a.812.812 0 1 0-1.149 1.149.812.812 0 0 0 1.149-1.149Zm-1.689 1.689a3.25 3.25 0 1 0-4.596 4.596 3.25 3.25 0 0 0 4.596-4.596Zm-3.677.92a1.95 1.95 0 1 1 2.758 2.757 1.95 1.95 0 0 1-2.758-2.758Z" fill="#A1A3A5"/></svg>