<svg width="40" height="40" fill="none" xmlns="http://www.w3.org/2000/svg"><path d="M40 4.795v24.003a1.546 1.546 0 0 1-.153.66c-.099.207-.243.391-.422.54-3.183 2.647-6.227 3.601-9.13 3.601-3.939 0-7.618-1.748-11.04-3.37-5.532-2.63-10.34-4.91-15.922-.677V38.4c0 .424-.175.831-.488 1.131-.312.3-.736.469-1.178.469-.442 0-.866-.169-1.179-.469A1.568 1.568 0 0 1 0 38.4V4.795c.002-.228.054-.453.153-.66.1-.207.244-.392.424-.54 7.5-6.238 14.231-3.043 20.165-.225 5.716 2.717 10.673 5.065 16.5.224a1.73 1.73 0 0 1 1.78-.248c.29.126.536.33.71.587.173.256.266.556.268.862Z" fill="#409FBD"/><path d="M6.08 21v-8.4h1.585l3.546 5.754V12.6h1.464V21h-1.578l-3.552-5.754V21H6.08Zm8.28 0v-8.4h5.268v1.464h-3.804v1.704h3.018v1.464h-3.018v2.304h3.804V21H14.36Zm8.787 0-2.148-8.4h1.512l1.464 5.742 1.464-5.742h1.338l1.464 5.742 1.458-5.742h1.512L29.075 21h-1.662l-1.308-5.088L24.815 21h-1.668Zm9.409-2.52V12.6h1.236v5.88h-1.236Zm.624 2.676a.746.746 0 0 1-.756-.762c0-.208.072-.384.216-.528a.746.746 0 0 1 .54-.216c.204 0 .378.072.522.216.144.144.216.32.216.528a.746.746 0 0 1-.216.54.702.702 0 0 1-.522.222Z" fill="#fff"/></svg>