<svg width="26" height="26" fill="none" xmlns="http://www.w3.org/2000/svg"><path d="M13.002 0C5.82 0 0 5.82 0 13.002c0 5.506 3.426 10.216 8.264 12.109-.114-1.028-.217-2.611.046-3.735.235-1.014 1.526-6.464 1.526-6.464s-.388-.779-.388-1.932c0-1.807 1.05-3.158 2.351-3.158 1.11 0 1.644.832 1.644 1.832 0 1.117-.712 2.781-1.078 4.329-.306 1.295.647 2.348 1.925 2.348 2.312 0 4.087-2.437 4.087-5.955 0-3.113-2.238-5.29-5.432-5.29-3.7 0-5.87 2.775-5.87 5.642 0 1.117.43 2.316.968 2.967.107.128.12.242.089.373-.1.41-.317 1.295-.363 1.473-.057.238-.188.288-.434.174-1.622-.754-2.64-3.13-2.64-5.037 0-4.101 2.982-7.869 8.591-7.869 4.511 0 8.015 3.213 8.015 7.51s-2.825 8.085-6.745 8.085c-1.316 0-2.554-.683-2.98-1.494l-.812 3.092c-.295 1.127-1.085 2.543-1.615 3.408 1.217.377 2.508.58 3.85.58C20.176 25.99 26 20.17 26 12.987 26 5.805 20.18 0 13.002 0Z" fill="#A1A3A5"/></svg>