<svg width="24" height="24" fill="none" xmlns="http://www.w3.org/2000/svg"><mask id="a" style="mask-type:alpha" maskUnits="userSpaceOnUse" x="0" y="0" width="24" height="24"><path fill="#D9D9D9" d="M0 0h24v24H0z"/></mask><g mask="url(#a)"><path d="M17.75 20.25c-1.05 0-1.938-.363-2.662-1.087C14.363 18.437 14 17.55 14 16.5c0-1.05.363-1.938 1.088-2.662.725-.725 1.612-1.088 2.662-1.088 1.05 0 1.938.363 2.663 1.088.724.725 1.087 1.612 1.087 2.662 0 1.05-.363 1.938-1.087 2.663-.726.724-1.613 1.087-2.663 1.087Zm0-2c.483 0 .896-.17 1.238-.512.341-.342.512-.755.512-1.238s-.17-.896-.512-1.238a1.686 1.686 0 0 0-1.238-.512c-.483 0-.896.17-1.238.512A1.686 1.686 0 0 0 16 16.5c0 .483.17.896.512 1.238.342.341.755.512 1.238.512ZM4 17.5v-2h8v2H4Zm2.25-6.25c-1.05 0-1.938-.363-2.663-1.088C2.862 9.438 2.5 8.55 2.5 7.5c0-1.05.362-1.938 1.087-2.662C4.313 4.112 5.2 3.75 6.25 3.75c1.05 0 1.938.362 2.662 1.088C9.637 5.562 10 6.45 10 7.5c0 1.05-.363 1.938-1.088 2.662-.725.725-1.612 1.088-2.662 1.088Zm0-2c.483 0 .896-.17 1.237-.512C7.83 8.396 8 7.983 8 7.5s-.17-.896-.513-1.237A1.686 1.686 0 0 0 6.25 5.75c-.483 0-.896.17-1.237.513A1.686 1.686 0 0 0 4.5 7.5c0 .483.17.896.513 1.238.341.341.754.512 1.237.512ZM12 8.5v-2h8v2h-8Z" fill="#1C1B1F"/></g></svg>