<svg width="26" height="27" fill="none" xmlns="http://www.w3.org/2000/svg"><path fill-rule="evenodd" clip-rule="evenodd" d="M13 26.25c7.18 0 13-5.82 13-13s-5.82-13-13-13-13 5.82-13 13 5.82 13 13 13Zm2.073-13L11.7 15.34v-4.18l3.373 2.09Zm4.323-2.04c-.039-.558-.098-.996-.182-1.324-.162-.627-.54-1.03-1.124-1.205-.67-.195-2.367-.306-5.09-.306l-1.034.042c-.714 0-1.488.02-2.333.07-.858.041-1.417.104-1.722.194-.585.175-.962.578-1.125 1.205-.182.718-.286 1.839-.286 3.364l.039.585c0 .418.02.898.065 1.455.039.558.098.996.182 1.324.163.627.54 1.03 1.125 1.205.669.195 2.366.306 5.089.306l1.034-.042c.714 0 1.488-.02 2.333-.07.858-.041 1.417-.104 1.723-.194.584-.174.962-.578 1.124-1.205.182-.718.286-1.839.286-3.364l-.039-.585c0-.418-.02-.898-.065-1.455Z" fill="#A1A3A5"/></svg>