<svg width="160" height="26" fill="none" xmlns="http://www.w3.org/2000/svg"><g clip-path="url(#a)"><path d="M43.493 8.996c0-4.33-5.02-4.33-6.83-4.33h-3.875v16.301h2.669v-7.539h1.715l4.468 7.54h3.035l-4.888-7.966c1.913-.317 3.706-1.235 3.706-4v-.006Zm-6.44 3.299h-1.596V7.983c0-1.71 0-2.165 1.541-2.183h.294c2.033 0 3.539.725 3.539 3.34 0 2.615-2.201 3.155-3.779 3.155ZM54.061 12.313v-.048c1.188-.384 2.909-1.308 2.909-3.683 0-3.262-2.957-3.916-5.74-3.916h-4.894v16.301h4.553c1.985 0 6.903 0 6.903-4.336 0-3.07-2.01-3.976-3.73-4.312v-.006ZM49 7.059c0-1.188.414-1.26 1.865-1.26 2.202 0 3.437.726 3.437 2.91 0 2.398-1.595 3.076-3.676 3.076h-1.626V7.059Zm2.321 12.769c-1.331 0-2.327 0-2.327-.996v-5.908H51.2c2.13 0 3.923.84 3.923 3.245 0 2.405-1.14 3.659-3.803 3.659ZM73.085 5.524c-1.05-.744-2.513-1.14-4.228-1.14-2.459 0-4.324.834-5.536 2.483-1.013 1.38-1.547 3.329-1.547 5.638 0 2.459.576 4.546 1.667 6.04 1.302 1.786 3.28 2.692 5.89 2.692 1.913 0 3.52-.348 4.792-1.043h.012V17.92l-.03.018c-1.308.935-2.543 1.553-4.3 1.553-1.902 0-3.275-.87-4.085-2.579-.57-1.212-.863-2.837-.863-4.846 0-1.091.114-2.663.66-3.964.63-1.512 1.679-2.28 3.118-2.28.972 0 1.715.337 2.22.996.425.564.647 1.338.647 2.25v.017h3.364v-.018c0-1.511-.611-2.74-1.769-3.556l-.012.012ZM81.043 9.44c-4.522 0-5.475 3.209-5.475 5.901 0 2.693.948 5.902 5.475 5.902 4.529 0 5.5-3.209 5.5-5.902 0-2.692-.953-5.901-5.5-5.901Zm0 10.771c-2.578 0-2.578-3.664-2.578-4.87 0-1.205 0-4.87 2.578-4.87 2.58 0 2.61 3.665 2.61 4.87 0 1.206 0 4.87-2.61 4.87ZM103.99 14.01c-1.194-.612-2.225-1.134-2.225-1.997 0-.864.941-1.164 1.751-1.164 1.205 0 2.159.522 3.106 1.11l.03.018V9.902h-.012c-1.151-.312-2.051-.456-2.914-.456-1.224 0-2.273.264-3.035.761-.876.576-1.32 1.41-1.32 2.495 0 1.812 1.758 2.73 3.305 3.539 1.224.642 2.285 1.193 2.285 2.057 0 .966-1.061 1.397-2.111 1.397-.666 0-1.739-.12-3.418-1.175l-.03-.018v2.243h.012c1.103.336 2.183.498 3.304.498 1.338 0 2.471-.264 3.275-.756.959-.588 1.445-1.487 1.445-2.663 0-2.063-1.829-2.993-3.436-3.814h-.012ZM116.411 14.376c0 .822-.198 2.087-.744 3.185-.774 1.547-1.823 1.87-2.561 1.87-1.541 0-1.541-1.805-1.541-2.674v-7.06h-2.663v8.235c0 .906.276 1.722.786 2.31.557.647 1.373.989 2.351.989 1.889 0 3.346-.984 4.324-2.927h.024v2.67h2.687V9.691h-2.663V14.376ZM94.37 9.44c-2.4 0-3.683 2.249-4.049 3.1h-.047V9.717h-2.4V20.96h2.4v-5.907c0-1.716 1.379-3.97 2.98-3.97 1.602 0 1.62 1.69 1.62 3.604v6.273h2.422v-8.108c0-1.866-.725-3.413-2.926-3.413ZM123.673 5.65h-2.417v15.299h2.417v-15.3ZM129.515 5.65h-2.423v4.042h-1.889v.971h1.889v7.425c0 2.759 1.355 3.13 3.682 3.13.534 0 1.086-.095 1.626-.203v-.966a3.807 3.807 0 0 1-.9.108c-1.865 0-1.985-.755-1.985-2.453v-7.04h2.963v-.972h-2.963V5.649ZM136.664 9.692h-2.435v11.257h2.435V9.692ZM136.664 5.65h-2.435v2.362h2.435V5.65ZM145.504 9.428c-2.399 0-3.682 2.25-4.042 3.1h-.048V9.705h-2.399V20.95h2.399v-5.907c0-1.715 1.38-3.97 2.981-3.97s1.619 1.69 1.619 3.604v6.273h2.423v-8.108c0-1.865-.726-3.413-2.927-3.413h-.006ZM157.595 9.692v1.41h-.048c-.414-.654-1.283-1.674-3.023-1.674-3.52 0-4.282 3.13-4.282 6.148 0 2.836 1.212 5.643 4.258 5.643 1.962 0 2.615-.965 3.053-1.697h.048v1.757c0 1.83-.552 3.065-2.351 3.065-1.685 0-2.171-1.182-2.219-2.273h-2.687c.324 2.279 1.661 3.22 4.816 3.22 3.874 0 4.84-1.703 4.84-4.683V9.686h-2.405v.006Zm0 6.76c0 1.337-.384 3.466-2.471 3.466s-2.225-2.957-2.225-4.678c0-1.722.216-4.504 2.417-4.504 1.499 0 2.273 1.523 2.273 3.046v2.663l.006.006Z" fill="#F5F5F5"/><mask id="b" style="mask-type:luminance" maskUnits="userSpaceOnUse" x="0" y="0" width="23" height="26"><path d="M7.64 2.957c0-.312-.041-1.398.235-1.632.312-.27 1.78-.191 2.285-.191 3.454 0 5.313 1.709 5.313 5.163 0 1.866-.347 3.533-1.979 4.582-1.511.894-2.909.816-4.618.816H7.635V2.963l.006-.006ZM10.16.006C8.606.042 7.095.12 5.548.162 3.682.126 1.859.048 0 .006V.9C1.241.9 2.867.864 3.293 2.22c.347 1.049.347 3.915.347 5.163v10.7c0 1.24 0 4.114-.347 5.163-.426 1.362-2.058 1.566-3.293 1.566v.893h11.635c1.661 0 3.61.042 5.362-.378l-1.326-1.643c-.863.63-2.02.971-3.496.971s-3.413.037-4.072-1.63c-.462-1.164-.462-3.57-.462-4.889V12.74l.294.365h4.54l-.24-.275c.935.101 1.847.305 2.65.725 1.83.984 2.634 2.615 2.766 4.558 1.649 1.89 3.49 4.007 3.49 4.007.102.12.192.221.288.323a5.698 5.698 0 0 0 1.097-3.376c0-2.255-1.163-4.114-2.986-5.356-1.512-1.05-3.49-1.397-5.662-1.59v-.077c2.945-.894 5.818-2.405 5.818-5.938C19.696 1.187 14.742 0 10.747 0c-.197 0-.395 0-.593.006" fill="#fff"/></mask><g mask="url(#b)"><path d="M22.526 0H0v25.741h22.526V0Z" fill="url(#c)"/></g><path d="m20.68 22.526-9.087-10.43H7.12l10.957 13.609h6.4v-.894c-1.98-.312-2.561-.851-3.803-2.29" fill="#1156A6"/></g><defs><linearGradient id="c" x1="11.299" y1="25.358" x2="11.299" y2="-.356" gradientUnits="userSpaceOnUse"><stop stop-color="#0075B6"/><stop offset=".34" stop-color="#1850A2"/><stop offset="1" stop-color="#1850A2"/></linearGradient><clipPath id="a"><path fill="#fff" d="M0 0h160v25.741H0z"/></clipPath></defs></svg>