<svg width="192" height="140" fill="none" xmlns="http://www.w3.org/2000/svg"><g clip-path="url(#a)" fill="#F5F5F5"><path d="M6.816 1.397c1.614 0 4.548.133 6.69 1.839.919.702 2.624 2.492 2.624 6.03 0 1.438-.308 3.98-2.885 5.727 4.065 1.004 5.553 4.549 5.553 7.342 0 2.794-1.397 5.069-2.97 6.297-2.316 1.839-4.983 1.923-6.99 1.923H1.571V1.397h5.244Zm-2.008 12.81h2.45c1.706 0 5.728-.35 5.728-4.85 0-4.808-4.724-4.893-5.637-4.893H4.815v9.75l-.007-.007Zm0 13.288h3.713c1.882 0 3.714-.134 5.117-1.222 1.138-.828 1.924-2.274 1.924-4.022 0-2.316-1.355-3.67-2.492-4.282-1.095-.61-2.625-.877-4.942-.877h-3.32v10.403ZM29.58 1.397v29.158h-3.236V1.397h3.235ZM53.775 15.913h12.15v.702c0 3.236-.961 6.731-2.8 9.223-.877 1.18-4.156 5.244-10.838 5.244-8.655 0-15.127-6.599-15.127-15.078C37.16 7.524 43.681.92 52.378.92c2.801 0 6.08.701 8.915 2.885 1.313 1.003 2.534 2.316 3.362 3.453l-2.4 2.183c-.829-1.18-1.79-2.232-2.752-3.018-1.397-1.137-3.587-2.45-7.083-2.45-7.04 0-11.932 5.286-11.932 12.066 0 7.953 6.338 11.975 11.848 11.975 3.889 0 7.258-1.965 8.915-4.892.526-.92 1.095-2.317 1.179-4.156h-8.655v-3.06.007ZM86.43 1.397h5.945c2.927 0 7.082.309 10.753 3.411 2.668 2.232 4.984 5.946 4.984 11.19 0 6.12-3.018 9.398-5.117 11.188-2.668 2.274-5.461 3.362-10.663 3.362H86.43V1.397Zm3.235 26.098h2.843c2.316 0 5.51-.26 8.346-2.626 2.183-1.838 3.931-4.716 3.931-8.872 0-6.991-4.893-11.54-12.284-11.54h-2.843v23.038h.007ZM130.209 22.335h-12.418l-3.495 8.22h-3.587L124.13 0l13.07 30.555h-3.587l-3.411-8.22h.007Zm-1.271-3.06-4.892-11.673-4.984 11.673h9.876ZM147.926 4.457v26.098h-3.236V4.457h-7.083v-3.06h17.394v3.06h-7.082.007ZM174.859 22.335h-12.417l-3.496 8.22h-3.587L168.787 0l13.07 30.555h-3.587l-3.411-8.22Zm-1.264-3.06-4.892-11.673-4.984 11.673h9.876ZM1.572 55.635h5.946c2.927 0 7.082.31 10.753 3.412 2.668 2.232 4.984 5.945 4.984 11.189 0 6.12-3.018 9.398-5.117 11.188-2.667 2.275-5.461 3.363-10.662 3.363H1.572V55.628v.007Zm3.236 26.098h2.843c2.316 0 5.51-.26 8.346-2.625 2.183-1.84 3.93-4.717 3.93-8.873 0-6.99-4.892-11.54-12.283-11.54H4.801v23.038h.007ZM35.525 55.635c1.965 0 4.892.134 7.082 1.615 1.706 1.137 3.194 3.362 3.194 6.472 0 4.457-2.927 7.735-7.342 8.044l9.265 13.028h-3.93L34.92 72.033h-.828v12.76h-3.236V55.636h4.675-.007Zm-1.44 13.512h2.057c4.023 0 6.423-1.923 6.423-5.334 0-1.615-.477-3.236-2.316-4.282-1.313-.744-2.8-.828-4.198-.828h-1.965v10.444ZM57.327 55.635v29.159h-3.236V55.635h3.236ZM66.543 55.635l8.22 22.252 8.22-22.252h3.587l-11.8 30.907-11.8-30.907h3.587-.014ZM107.375 58.696H95.484v8.655h11.54v3.06h-11.54v11.322h11.891v3.06H92.248V55.636h15.127v3.06ZM114.949 84.794v-30.38l22.728 23.824V55.642h3.236v30.464l-22.728-23.823v22.51h-3.236ZM14.6 115.644c-.393-.787-1.046-1.664-1.705-2.183-.569-.436-1.615-1.004-3.278-1.004-2.885 0-4.893 1.79-4.893 4.499 0 1.137.309 1.79 1.095 2.534.878.878 1.966 1.355 3.06 1.839l2.801 1.222c1.706.744 3.278 1.53 4.5 2.751 1.488 1.488 2.098 3.187 2.098 5.286 0 5.377-3.98 8.964-9.223 8.964-1.923 0-4.33-.394-6.338-2.359-1.446-1.397-2.317-3.411-2.71-5.159l3.145-.878c.217 1.531.92 2.843 1.748 3.714 1.27 1.27 2.709 1.614 4.197 1.614 3.98 0 5.854-2.843 5.854-5.77 0-1.312-.393-2.45-1.439-3.411-.828-.786-1.965-1.313-3.495-2.008l-2.626-1.221c-1.137-.527-2.576-1.137-3.888-2.401-1.27-1.221-2.015-2.576-2.015-4.766 0-4.499 3.454-7.518 8.17-7.518 1.79 0 3.237.351 4.676 1.313 1.179.786 2.183 1.965 2.842 3.236l-2.576 1.706ZM32.914 112.934v26.098h-3.236v-26.098h-7.083v-3.06H39.99v3.06h-7.082.007ZM50.455 109.874c1.965 0 4.892.133 7.083 1.614 1.705 1.137 3.193 3.362 3.193 6.472 0 4.457-2.927 7.735-7.342 8.044l9.266 13.028h-3.931l-8.873-12.761h-.828v12.761h-3.236v-29.158h4.675-.007Zm-1.439 13.512h2.057c4.022 0 6.422-1.923 6.422-5.335 0-1.614-.477-3.236-2.316-4.282-1.313-.744-2.8-.828-4.198-.828h-1.965v10.445ZM86.71 130.812H74.293l-3.496 8.22H67.21l13.421-30.555 13.07 30.555h-3.587l-3.411-8.22h.007Zm-1.263-3.06-4.893-11.673-4.984 11.673h9.877ZM104.427 112.934v26.098h-3.236v-26.098h-7.083v-3.06h17.394v3.06h-7.082.007ZM132.413 112.934h-11.891v8.655h11.54v3.06h-11.54v11.323h11.891v3.06h-15.127v-29.158h15.127v3.06ZM154.643 124.39h12.151v.702c0 3.236-.962 6.731-2.801 9.223-.878 1.179-4.156 5.244-10.838 5.244-8.655 0-15.127-6.599-15.127-15.078s6.514-15.078 15.211-15.078c2.801 0 6.079.702 8.915 2.885 1.312 1.004 2.534 2.317 3.362 3.454l-2.401 2.183c-.828-1.179-1.789-2.232-2.751-3.018-1.397-1.138-3.587-2.45-7.083-2.45-7.04 0-11.933 5.292-11.933 12.066 0 7.953 6.339 11.975 11.849 11.975 3.889 0 7.258-1.965 8.915-4.892.526-.92 1.095-2.317 1.179-4.156h-8.655v-3.06h.007ZM179.105 126.488l-9.574-16.607h3.762l7.434 13.028 7.518-13.028h3.762l-9.659 16.607v12.544h-3.236v-12.544h-.007Z"/></g><defs><clipPath id="a"><path fill="#fff" d="M0 0h192v139.559H0z"/></clipPath></defs></svg>