<svg width="140" height="23" fill="none" xmlns="http://www.w3.org/2000/svg"><g clip-path="url(#a)" fill="#F5F5F5"><path d="M11.628 5.298c0-4.706-5.452-4.706-7.42-4.706H0v17.702h2.901v-8.19H4.76l4.853 8.19h3.298L7.607 9.645c2.076-.35 4.02-1.337 4.02-4.347Zm-7 3.578H2.9V4.193c0-1.859 0-2.349 1.672-2.372h.32c2.208 0 3.841.793 3.841 3.632 0 2.84-2.395 3.423-4.106 3.423ZM23.1 8.899v-.055c1.291-.42 3.158-1.423 3.158-4.005 0-3.54-3.212-4.247-6.238-4.247h-5.312v17.702h4.947c2.154 0 7.497 0 7.497-4.705 0-3.337-2.185-4.317-4.052-4.682v-.008Zm-5.499-5.71c0-1.29.451-1.368 2.03-1.368 2.396 0 3.734.793 3.734 3.158 0 2.605-1.735 3.337-3.99 3.337h-1.766V3.19h-.008Zm2.528 13.877c-1.447 0-2.528 0-2.528-1.082V9.568h2.396c2.318 0 4.262.91 4.262 3.523s-1.236 3.975-4.13 3.975ZM41.012.273c-2.675 0-4.705.91-6.027 2.707-1.105 1.501-1.688 3.617-1.688 6.137 0 2.675.63 4.946 1.812 6.572 1.416 1.944 3.578 2.932 6.409 2.932 2.077 0 3.834-.381 5.211-1.136h.023v-2.52l-.062.047c-1.415 1.011-2.753 1.688-4.659 1.688-2.053 0-3.539-.941-4.417-2.784-.623-1.307-.934-3.08-.934-5.258 0-2.03.397-6.76 4.084-6.76 1.936 0 3.095 1.308 3.095 3.5v.04h3.687v-.04c0-3.771-3.376-5.117-6.534-5.117V.273ZM54.25 5.764c-4.93 0-5.965 3.493-5.965 6.425s1.034 6.424 5.965 6.424 5.99-3.492 5.99-6.424c0-2.932-1.043-6.425-5.99-6.425Zm2.808 6.425c0 1.306 0 5.273-2.808 5.273s-2.784-3.966-2.784-5.273c0-1.307 0-5.273 2.784-5.273 2.785 0 2.808 3.966 2.808 5.273ZM79.178 10.727c-1.291-.662-2.404-1.23-2.404-2.155 0-.925 1.011-1.244 1.882-1.244 1.307 0 2.342.568 3.368 1.198l.063.038V6.262h-.032c-1.252-.35-2.232-.498-3.173-.498-2.294 0-4.752.934-4.752 3.555 0 1.975 1.913 2.979 3.593 3.858 1.322.692 2.474 1.29 2.474 2.216 0 1.035-1.144 1.501-2.272 1.501-1.485 0-2.76-.684-3.702-1.275l-.062-.039v2.489h.031c1.198.373 2.372.552 3.593.552 3.275 0 5.15-1.361 5.15-3.733 0-2.248-1.992-3.267-3.75-4.161h-.007ZM92.633 11.139c0 .886-.21 2.263-.808 3.453-.46.926-1.315 2.022-2.77 2.022-1.656 0-1.656-1.952-1.656-2.885V6.044h-2.924v8.968c0 1.797 1.057 3.601 3.422 3.601 2.053 0 3.632-1.065 4.698-3.165v2.885h2.955V6.044h-2.924v5.095h.007ZM68.724 5.78c-2.605 0-3.997 2.442-4.394 3.368h-.055V6.083H61.67v12.212h2.605v-6.417c0-1.867 1.502-4.31 3.236-4.31 1.735 0 1.758 1.844 1.758 3.92v6.814h2.629V9.498c0-2.022-.794-3.71-3.181-3.71l.007-.008ZM100.551 1.666h-2.629v16.62h2.629V1.667ZM106.89 1.666h-2.629V6.06h-2.046v1.058h2.046v8.065c0 3.003 1.478 3.4 3.998 3.4.575 0 1.182-.11 1.765-.219v-1.05a4.15 4.15 0 0 1-.972.117c-2.022 0-2.154-.824-2.154-2.66V7.126h3.212V6.068h-3.212V1.666h-.008ZM114.66 6.06h-2.644v12.227h2.644V6.06ZM114.66 1.666h-2.644v2.566h2.644V1.666ZM124.258 5.772c-2.606 0-3.998 2.442-4.395 3.368h-.054V6.076h-2.606v12.21h2.606V11.87c0-1.867 1.501-4.309 3.235-4.309 1.735 0 1.758 1.843 1.758 3.92v6.813h2.629V9.49c0-2.022-.793-3.71-3.181-3.71l.008-.008ZM137.387 6.06v1.524h-.055c-.443-.707-1.392-1.812-3.282-1.812-3.827 0-4.651 3.407-4.651 6.681 0 3.08 1.314 6.13 4.628 6.13 2.131 0 2.839-1.05 3.313-1.844h.054v1.905c0 1.984-.598 3.33-2.551 3.33-1.827 0-2.356-1.284-2.411-2.466h-2.916c.357 2.473 1.804 3.5 5.234 3.5 4.208 0 5.258-1.851 5.258-5.087V6.06h-2.621Zm0 7.334c0 1.447-.42 3.765-2.684 3.765-2.263 0-2.419-3.205-2.419-5.079 0-1.874.234-4.892 2.629-4.892 1.634 0 2.474 1.656 2.474 3.313v2.893Z"/></g><defs><clipPath id="a"><path fill="#fff" transform="translate(0 .273)" d="M0 0h140v22.727H0z"/></clipPath></defs></svg>