<svg width="343" height="248" fill="none" xmlns="http://www.w3.org/2000/svg"><g clip-path="url(#a)" fill="#F5F5F5"><path d="M12.176 2.482c2.884 0 8.126.237 11.95 3.268 1.643 1.248 4.69 4.428 4.69 10.715 0 2.557-.551 7.073-5.153 10.178 7.26 1.784 9.919 8.083 9.919 13.048 0 4.964-2.496 9.006-5.305 11.189-4.138 3.268-8.903 3.417-12.49 3.417H2.81V2.483h9.367ZM8.59 25.247h4.376c3.047 0 10.233-.624 10.233-8.62 0-8.544-8.44-8.694-10.07-8.694H8.602V25.26l-.012-.012Zm0 23.612h6.633c3.361 0 6.634-.237 9.142-2.17 2.031-1.472 3.436-4.042 3.436-7.148 0-4.116-2.42-6.523-4.452-7.609-1.956-1.085-4.69-1.559-8.828-1.559H8.59V48.86ZM52.842 2.482v51.816h-5.78V2.481h5.78ZM96.067 28.278h21.706v1.247c0 5.75-1.718 11.962-5.003 16.39-1.568 2.096-7.424 9.318-19.362 9.318-15.461 0-27.023-11.725-27.023-26.793S78.035 1.634 93.571 1.634c5.004 0 10.86 1.247 15.926 5.127 2.345 1.783 4.527 4.116 6.006 6.137l-4.288 3.879c-1.48-2.096-3.198-3.967-4.916-5.364-2.495-2.02-6.408-4.353-12.652-4.353-12.578 0-21.318 9.393-21.318 21.442 0 14.133 11.324 21.28 21.167 21.28 6.947 0 12.966-3.492 15.926-8.694.94-1.634 1.956-4.116 2.106-7.384H96.067v-5.439.013ZM154.402 2.482h10.621c5.229 0 12.653.549 19.211 6.062 4.765 3.967 8.903 10.566 8.903 19.883 0 10.877-5.392 16.702-9.141 19.883-4.765 4.042-9.756 5.975-19.048 5.975h-10.546V2.482Zm5.781 46.377h5.078c4.138 0 9.844-.462 14.91-4.665 3.9-3.268 7.022-8.382 7.022-15.767 0-12.423-8.74-20.506-21.944-20.506h-5.079v40.938h.013ZM232.612 39.691h-22.183l-6.244 14.607h-6.408L221.753 0l23.349 54.298h-6.408L232.6 39.69h.012Zm-2.269-5.439-8.741-20.743-8.903 20.743h17.644ZM264.263 7.92v46.377h-5.781V7.922H245.83V2.482h31.073v5.439H264.25h.013ZM312.378 39.691h-22.183l-6.245 14.607h-6.408L301.531 0l23.349 54.298h-6.408l-6.094-14.607Zm-2.257-5.439-8.74-20.743-8.904 20.743h17.644ZM2.809 88.866h10.62c5.23 0 12.653.549 19.212 6.062 4.765 3.967 8.903 10.565 8.903 19.883 0 10.877-5.392 16.702-9.142 19.883-4.765 4.041-9.756 5.975-19.047 5.975H2.809V88.853v.013Zm5.78 46.377h5.079c4.138 0 9.844-.462 14.91-4.665 3.9-3.268 7.022-8.383 7.022-15.767 0-12.424-8.74-20.507-21.945-20.507H8.578v40.939h.012ZM63.464 88.865c3.511 0 8.74.237 12.653 2.87 3.047 2.02 5.705 5.974 5.705 11.5 0 7.921-5.229 13.746-13.116 14.295l16.552 23.151h-7.022l-15.85-22.677h-1.48v22.677h-5.781V88.865h8.352-.013Zm-2.57 24.012h3.673c7.186 0 11.474-3.418 11.474-9.48 0-2.869-.852-5.75-4.138-7.609-2.345-1.322-5.003-1.472-7.499-1.472h-3.51v18.561ZM102.412 88.865v51.816h-5.78V88.865h5.78ZM118.877 88.865l14.684 39.542 14.684-39.542h6.408l-21.08 54.921-21.079-54.92h6.408-.025ZM191.821 94.304h-21.243v15.38h20.616v5.438h-20.616v20.12h21.243v5.439h-27.024V88.865h27.024v5.439ZM205.351 140.681V86.695l40.604 42.336V88.878h5.781v54.136l-40.604-42.336v40.003h-5.781ZM26.083 185.503c-.702-1.397-1.869-2.957-3.047-3.88-1.016-.773-2.885-1.783-5.856-1.783-5.154 0-8.74 3.18-8.74 7.995 0 2.021.551 3.181 1.956 4.503 1.567 1.559 3.51 2.408 5.467 3.268l5.003 2.171c3.047 1.322 5.856 2.719 8.038 4.889 2.659 2.645 3.75 5.663 3.75 9.393 0 9.555-7.11 15.929-16.478 15.929-3.435 0-7.737-.699-11.323-4.191-2.583-2.483-4.138-6.063-4.84-9.169l5.618-1.559c.388 2.72 1.642 5.052 3.122 6.599 2.27 2.258 4.84 2.869 7.499 2.869 7.11 0 10.458-5.052 10.458-10.254 0-2.332-.702-4.353-2.57-6.062-1.48-1.397-3.512-2.332-6.246-3.567l-4.69-2.171c-2.03-.935-4.602-2.02-6.947-4.266-2.27-2.17-3.598-4.577-3.598-8.469 0-7.996 6.17-13.359 14.596-13.359 3.198 0 5.78.623 8.351 2.332 2.107 1.397 3.9 3.493 5.079 5.751l-4.602 3.031ZM58.799 180.688v46.376h-5.781v-46.376H40.365v-5.439H71.44v5.439H58.786h.013ZM90.136 175.249c3.51 0 8.74.237 12.652 2.869 3.048 2.021 5.706 5.975 5.706 11.501 0 7.92-5.229 13.745-13.117 14.294l16.553 23.151h-7.022l-15.85-22.677h-1.48v22.677h-5.781v-51.815h8.351-.012Zm-2.57 24.012h3.673c7.186 0 11.474-3.418 11.474-9.48 0-2.869-.853-5.751-4.138-7.609-2.345-1.322-5.003-1.472-7.499-1.472h-3.51v18.561ZM154.904 212.458h-22.183l-6.245 14.606h-6.408l23.976-54.297 23.349 54.297h-6.407l-6.095-14.606h.013Zm-2.257-5.439-8.741-20.743-8.903 20.743h17.644ZM186.554 180.688v46.376h-5.781v-46.376h-12.652v-5.439h31.073v5.439h-12.653.013ZM236.55 180.688h-21.242v15.379h20.615v5.439h-20.615v20.12h21.242v5.438h-27.023v-51.815h27.023v5.439ZM276.264 201.044h21.706v1.248c0 5.75-1.718 11.962-5.003 16.39-1.568 2.095-7.424 9.318-19.362 9.318-15.461 0-27.023-11.726-27.023-26.794s11.637-26.793 27.174-26.793c5.003 0 10.859 1.247 15.925 5.127 2.345 1.783 4.527 4.116 6.007 6.137l-4.289 3.879c-1.48-2.096-3.198-3.967-4.915-5.364-2.496-2.02-6.408-4.353-12.653-4.353-12.577 0-21.318 9.405-21.318 21.442 0 14.133 11.324 21.28 21.167 21.28 6.947 0 12.967-3.492 15.926-8.694.94-1.634 1.956-4.116 2.107-7.384h-15.462v-5.439h.013ZM319.965 204.774l-17.105-29.512h6.722l13.279 23.151 13.43-23.151h6.722l-17.255 29.512v22.291h-5.781v-22.291h-.012Z"/></g><defs><clipPath id="a"><path fill="#fff" d="M0 0h343v248H0z"/></clipPath></defs></svg>