<svg width="140" height="40" viewBox="0 0 140 40" fill="none" xmlns="http://www.w3.org/2000/svg">
<g clip-path="url(#clip0_4202_2110)">
<mask id="mask0_4202_2110" style="mask-type:luminance" maskUnits="userSpaceOnUse" x="0" y="0" width="140" height="40">
<path d="M140 0H0V40H140V0Z" fill="white"/>
</mask>
<g mask="url(#mask0_4202_2110)">
<path d="M33.1946 30.6145C33.068 30.6098 32.9437 30.5794 32.8292 30.5253C32.7147 30.4712 32.6124 30.3945 32.5283 30.2998C32.2669 29.9302 32.5159 29.3722 32.5631 29.2706C33.2074 28.0919 33.6953 26.8342 34.0145 25.5292C34.3431 24.1213 34.5208 22.6823 34.5446 21.2367C34.5446 12.0686 26.8109 4.63586 17.2723 4.63586C7.73374 4.63586 0 12.0686 0 21.2367C0 30.4047 7.15349 37.8373 17.2723 37.8373C20.3275 37.8746 23.3443 37.1535 26.0526 35.7385C26.1548 35.6974 26.5552 35.5426 26.6501 35.5071C27.6887 35.0695 28.7716 34.5713 29.8873 34.003C31.8164 33.0196 33.6786 31.9099 35.4617 30.6813C34.7064 30.7506 33.9456 30.7282 33.1957 30.6148" fill="#002D7B"/>
<path d="M10.5561 18.3072C10.9357 16.6955 11.1412 14.7196 9.33661 14.2923C8.14173 13.9758 6.97325 15.0197 6.09189 16.121C3.36092 19.3841 3.44628 27.4606 4.58971 32.7158C6.23781 34.4056 8.22841 35.7228 10.4277 36.5789C8.89316 30.6474 9.16388 22.4584 10.5561 18.3072Z" fill="#FFDF00"/>
<path d="M23.0401 19.7267C23.2814 17.5598 23.0539 14.739 20.5907 14.7978C19.0888 14.7827 17.5088 16.5089 16.7855 18.328C15.2168 21.5303 15.5738 32.5582 17.758 37.8254C20.0707 37.7908 22.3573 37.3303 24.5033 36.467C21.8648 31.5084 22.723 21.93 23.0399 19.7256" fill="#FFDF00"/>
<path d="M123.812 6.70939C123.229 6.03796 122.369 5.64934 121.327 5.58546C119.192 5.45499 117.05 5.45573 114.915 5.58768C112.683 5.72698 110.973 7.36419 110.66 9.66263C110.417 11.4653 110.224 13.3059 110.09 15.1332C109.943 17.1398 110.98 18.6368 112.866 19.1374C113.459 19.2879 114.068 19.3632 114.68 19.3617C115.649 19.3706 123.206 19.3111 123.206 19.3111L123.574 15.8286L123.581 15.7621C123.581 15.7621 115.878 15.759 114.703 15.7379C114.179 15.729 113.831 15.4699 113.797 15.0623C113.794 14.7377 113.809 14.4133 113.843 14.0905L118.435 14.0829C119.166 14.0894 119.898 14.058 120.626 13.9889C122.701 13.7584 123.983 12.7447 124.469 10.7835C124.553 10.4082 124.606 10.0266 124.627 9.64266C124.722 8.44642 124.44 7.43184 123.812 6.7085M120.905 9.99801C120.859 10.6042 120.661 10.8254 120.051 10.9445C119.882 10.9772 119.71 10.9937 119.538 10.9937C117.561 10.9993 115.621 10.9984 114.138 10.9973C114.183 10.6085 114.252 10.2229 114.343 9.8423C114.4 9.64928 114.518 9.47985 114.679 9.35923C114.84 9.23861 115.036 9.17324 115.237 9.17286C117.066 9.12539 118.707 9.12428 120.255 9.16998C120.345 9.16597 120.434 9.18033 120.518 9.21218C120.602 9.24403 120.679 9.2927 120.743 9.35519C120.877 9.54133 120.934 9.77143 120.903 9.99845" fill="#002D7B"/>
<path d="M139.167 6.70939C138.583 6.03796 137.724 5.64934 136.682 5.58546C134.546 5.45499 132.405 5.45573 130.27 5.58768C128.037 5.72698 126.327 7.36463 126.015 9.66263C125.771 11.4653 125.578 13.3059 125.444 15.1332C125.297 17.1398 126.335 18.6368 128.22 19.1374C128.813 19.2879 129.423 19.3632 130.035 19.3617C131.004 19.3706 138.561 19.3111 138.561 19.3111L138.929 15.8286L138.936 15.7621C138.936 15.7621 131.233 15.759 130.057 15.7379C129.533 15.729 129.186 15.4699 129.151 15.0623C129.148 14.7377 129.164 14.4133 129.198 14.0905L133.79 14.0829C134.521 14.0894 135.252 14.058 135.981 13.9889C138.056 13.7584 139.338 12.7447 139.823 10.7835C139.907 10.4082 139.96 10.0266 139.982 9.64266C140.076 8.44642 139.795 7.43184 139.167 6.7085M136.259 9.99801C136.214 10.6042 136.015 10.8254 135.405 10.9445C135.236 10.9772 135.064 10.9937 134.892 10.9937C132.916 10.9993 130.976 10.9984 129.492 10.9973C129.538 10.6085 129.606 10.2229 129.698 9.8423C129.755 9.64928 129.873 9.47985 130.034 9.35923C130.195 9.23861 130.391 9.17324 130.592 9.17286C132.42 9.12539 134.062 9.12428 135.61 9.16998C135.699 9.16597 135.789 9.18033 135.873 9.21218C135.957 9.24403 136.033 9.2927 136.098 9.35519C136.231 9.54133 136.288 9.77143 136.258 9.99845" fill="#002D7B"/>
<path d="M108.464 14.8438C108.865 13.6272 109.057 12.3514 109.032 11.0705C109.055 10.0868 108.86 9.11026 108.459 8.21157C107.639 6.46811 106.124 5.55312 103.955 5.49257C103.592 5.48236 102.126 5.47305 102.126 5.47305H98.5639L99.1437 0H95.4378L94.0246 13.4278C93.9687 14.0573 93.9637 14.6903 94.0095 15.3207C94.2312 17.7148 95.5283 19.0876 97.8185 19.2852C98.7624 19.3662 99.6925 19.4074 100.583 19.4074C101.402 19.4074 102.204 19.3728 102.968 19.3038C105.713 19.0585 107.51 17.5996 108.464 14.8438ZM103.254 9.13276C104.548 9.21461 105.148 9.70016 105.244 11.1224C105.323 12.1342 105.185 13.1511 104.839 14.1052C104.466 15.1111 103.758 15.6388 102.737 15.6732C101.553 15.7122 100.386 15.7129 99.269 15.6732C98.7305 15.6543 98.3282 15.5033 98.0737 15.2242C97.9451 15.0655 97.85 14.8823 97.7942 14.6858C97.7384 14.4893 97.723 14.2834 97.7489 14.0808C97.8154 12.9003 98.1963 9.10748 98.1963 9.10748C98.1963 9.10748 102.658 9.09439 103.253 9.13276" fill="#002D7B"/>
<path d="M74.6058 5.73562C74.0283 5.59249 73.4356 5.52016 72.8407 5.52024C71.1593 5.50538 64.906 5.5178 64.906 5.5178L64.5353 9.06683H72.111C72.376 9.0664 72.6409 9.08299 72.9038 9.11652C73.3965 9.18062 73.6577 9.46632 73.6903 9.87512C73.6985 10.1602 73.6859 10.4456 73.6526 10.7289C73.6526 10.7289 69.7445 10.7249 68.3756 10.7333C67.8482 10.7338 67.3213 10.7671 66.798 10.8329C64.8211 11.0907 63.5701 12.1141 63.0806 13.9831C62.9859 14.3866 62.9274 14.7978 62.9059 15.2118C62.7349 17.4326 63.7737 18.8251 65.9091 19.2392C66.2816 19.313 66.6602 19.3518 67.0399 19.355C68.1889 19.3603 72.9291 19.3599 73.2728 19.3599C73.5737 19.363 73.8745 19.3438 74.1725 19.3025C75.7441 19.0656 76.4909 18.3118 76.6705 16.782C76.8947 14.8708 77.1805 12.3555 77.3953 9.84673C77.5727 7.77144 76.5306 6.23471 74.6065 5.73562M73.1145 15.7208C73.1145 15.7208 68.5002 15.7361 67.4594 15.7131C67.3271 15.7226 67.1943 15.7036 67.0699 15.6574C66.9455 15.6112 66.8325 15.5388 66.7386 15.4451C66.6091 15.2843 66.5778 15.007 66.6459 14.6211C66.6666 14.4563 66.735 14.3012 66.8426 14.1748C66.9497 14.0567 67.0914 13.9756 67.2474 13.9432C67.4356 13.901 67.6278 13.8799 67.8206 13.8802L73.3098 13.8762L73.1145 15.7208Z" fill="#002D7B"/>
<path d="M84.8045 9.17842C85.1487 9.12809 85.4963 9.10414 85.8442 9.10678C86.9579 9.1019 92.4236 9.10678 92.4236 9.10678L92.8063 5.49475H85.8852V5.49697C85.5437 5.49963 85.2355 5.50606 84.9845 5.52048C82.4533 5.66732 80.5758 6.99998 79.5594 9.46301C78.9411 11.0035 78.6853 12.6656 78.8117 14.3207C78.8882 15.6481 79.2552 16.7097 79.9341 17.5666C80.8485 18.7213 82.1813 19.2623 83.8894 19.3528C84.773 19.3998 86.4592 19.375 86.4592 19.375H91.3372L91.7199 15.7002H84.9129C84.9129 15.7002 84.5411 15.6984 84.4069 15.696C83.3524 15.6763 82.7642 15.1392 82.6176 14.0963C82.4625 12.9503 82.5915 11.7837 82.9932 10.6994C83.1146 10.2972 83.3505 9.93916 83.672 9.66899C83.9936 9.39883 84.3869 9.22827 84.8038 9.1782" fill="#002D7B"/>
<path d="M59.3155 3.23412C58.5555 2.93711 57.5732 2.88521 56.2613 2.88477H53.9742C52.325 2.90451 51.8935 4.05129 51.8935 4.05129C51.8935 4.05129 51.9272 2.89319 49.7455 2.89319L49.7537 2.89164H45.4489C43.1651 2.89164 41.5802 4.80967 41.3878 6.91624C41.3794 6.99565 40.1475 19.3205 40.1475 19.3205H43.862L45.0312 7.70036C45.0641 7.3863 45.2121 7.09558 45.4466 6.8842C45.6811 6.67282 45.9855 6.55576 46.3012 6.55557L48.6958 6.5986C48.8526 6.60055 49.0071 6.63634 49.1487 6.70353C49.2904 6.77072 49.4158 6.86772 49.5165 6.9879C49.6173 7.10807 49.6908 7.2486 49.7323 7.39985C49.7737 7.5511 49.782 7.70952 49.7565 7.86428C49.7304 8.11448 48.6096 19.3205 48.6096 19.3205H52.3243C52.3243 19.3205 53.3423 9.10999 53.3886 8.68565C53.435 8.26132 53.468 7.93282 53.5103 7.59544C53.5559 7.31299 53.7018 7.05648 53.9213 6.87309C54.1408 6.6897 54.4191 6.59175 54.705 6.59727H56.636C57.7153 6.59727 58.1894 6.9433 58.1736 7.71322L57.0111 19.3201H60.7255C60.7255 19.3201 61.8476 8.19456 61.8691 7.8228C62.0104 5.39349 61.5257 4.09632 59.3155 3.23368" fill="#002D7B"/>
<path d="M84.4709 26.3758C83.8934 26.2326 83.3005 26.1603 82.7055 26.1604C81.0244 26.1455 74.7711 26.1579 74.7711 26.1579L74.4004 29.707L81.9761 29.7083C82.2411 29.7075 82.506 29.7236 82.7689 29.7567C83.2616 29.8208 83.5228 30.1065 83.5554 30.5153C83.5636 30.8004 83.551 31.0857 83.5177 31.369C83.5177 31.369 79.6096 31.365 78.2407 31.3735C77.7133 31.374 77.1864 31.4072 76.6631 31.4731C74.6873 31.7319 73.4363 32.7551 72.9468 34.6241C72.8521 35.0277 72.7936 35.4388 72.7721 35.8528C72.6011 38.0736 73.6399 39.4661 75.7753 39.8803C76.1478 39.954 76.5264 39.9928 76.9061 39.996C78.0551 40.0014 82.7953 40.0009 83.139 40.0009C83.4399 40.004 83.7407 39.9848 84.0388 39.9435C85.6101 39.7066 86.3571 38.9529 86.5367 37.423C86.7606 35.5118 87.0467 32.9965 87.2615 30.4878C87.4389 28.4125 86.3968 26.8757 84.4727 26.3766M82.9807 36.3618C82.9807 36.3618 78.3664 36.3771 77.3256 36.3541C77.1933 36.3636 77.0605 36.3447 76.9361 36.2984C76.8117 36.2522 76.6988 36.1798 76.6048 36.0861C76.4753 35.9253 76.444 35.648 76.5121 35.2621C76.5328 35.0973 76.6012 34.9422 76.7088 34.8158C76.8159 34.6977 76.9576 34.6167 77.1136 34.5842C77.3018 34.5421 77.494 34.5209 77.6868 34.5212L83.176 34.5172L82.9807 36.3618Z" fill="#002D7B"/>
<path d="M63.408 22.9968C62.6587 22.7768 61.8828 22.6605 61.102 22.6512C59.269 22.625 52.6399 22.6366 52.6399 22.6366L50.8291 39.9807H54.6288L55.2833 33.745C55.2833 33.745 59.3466 33.7523 60.5524 33.7248C62.1537 33.6874 63.3831 33.1841 64.4279 32.1943C66.0609 30.6465 66.709 28.6868 66.3622 26.405C66.0992 24.6728 65.078 23.4948 63.4091 22.9979M61.4836 29.6681C61.1432 29.7879 60.7841 29.8457 60.4233 29.8387C59.273 29.8533 55.5361 29.8497 55.5361 29.8497L55.8713 26.6538C55.8713 26.6538 60.1874 26.6474 61.1705 26.6618C61.9355 26.6729 62.4142 27.0853 62.4836 27.7931C62.569 28.6571 62.1761 29.393 61.4834 29.6685" fill="#002D7B"/>
<path d="M100.388 26.5997C99.3373 26.2454 98.2323 26.0802 97.1241 26.1117H95.0098H92.2894C90.3041 26.1117 89.5636 26.7831 89.3543 28.7735C89.2753 29.525 88.1807 39.9999 88.1807 39.9999H91.9353L93.0021 29.7381C93.0021 29.7381 97.1645 29.7381 97.7516 29.7683C98.9545 29.8282 99.6919 30.4533 99.8068 31.4541C99.8356 31.7974 99.8281 32.1427 99.7846 32.4844C99.7536 32.795 99.0039 40.0004 99.0039 40.0004H102.759C102.759 40.0004 103.501 33.0725 103.589 31.5546C103.73 29.1253 102.617 27.4122 100.388 26.5997Z" fill="#002D7B"/>
<path d="M126.717 26.0958L127.027 23.1328H123.344L123.03 26.1317H121.293L120.914 29.7537H122.657C122.657 29.7537 122.176 34.4575 122.133 34.8539C122.047 35.6424 122.04 36.4375 122.112 37.2273C122.242 38.5667 122.924 39.4193 124.165 39.7613C125.081 40.0135 126.276 39.9772 126.928 39.9772L128.719 39.9761L129.089 36.4612C129.089 36.4612 127.169 36.463 126.804 36.4612C126.319 36.4574 126.053 36.3918 125.915 36.2423C125.777 36.0928 125.725 35.8252 125.775 35.3328C125.792 35.1667 126.35 29.7336 126.35 29.7336H129.826L130.206 26.0978L126.717 26.0958Z" fill="#002D7B"/>
<path d="M66.8789 39.9865H70.5303L72.3437 22.6679L72.3506 22.6024H68.6986L66.8789 39.9865Z" fill="#002D7B"/>
<path d="M118.765 27.3262C118.181 26.6548 117.321 26.2662 116.279 26.2023C114.144 26.0718 112.003 26.0726 109.867 26.2045C107.635 26.3438 105.925 27.9815 105.613 30.2794C105.369 32.0821 105.176 33.9228 105.042 35.7501C104.895 37.7566 105.933 39.2536 107.818 39.7543C108.411 39.9047 109.021 39.98 109.632 39.9785C110.601 39.9874 118.158 39.9279 118.158 39.9279L118.526 36.4454L118.533 36.3789C118.533 36.3789 110.83 36.3756 109.655 36.3547C109.131 36.3459 108.783 36.0868 108.749 35.6791C108.746 35.3545 108.761 35.0301 108.795 34.7073L113.387 34.6998C114.119 34.7062 114.85 34.6748 115.578 34.6057C117.653 34.3752 118.935 33.3616 119.421 31.4003C119.505 31.025 119.558 30.6434 119.579 30.2595C119.674 29.0632 119.392 28.0487 118.765 27.3253M115.857 30.6148C115.811 31.2211 115.613 31.4422 115.003 31.5613C114.834 31.594 114.662 31.6105 114.49 31.6106C112.514 31.6161 110.573 31.6152 109.09 31.6141C109.135 31.2254 109.204 30.8397 109.295 30.4591C109.353 30.2661 109.47 30.0967 109.631 29.976C109.793 29.8554 109.988 29.7901 110.189 29.7897C112.018 29.7422 113.659 29.7411 115.208 29.7868C115.297 29.7826 115.387 29.7969 115.471 29.8288C115.555 29.8606 115.632 29.9094 115.696 29.972C115.83 30.1581 115.887 30.3883 115.857 30.6153" fill="#002D7B"/>
</g>
</g>
<defs>
<clipPath id="clip0_4202_2110">
<rect width="140" height="40" fill="white"/>
</clipPath>
</defs>
</svg>
