<svg width="16" height="16" viewBox="0 0 16 16" fill="none" xmlns="http://www.w3.org/2000/svg">
<path d="M11.9999 12.0001V13.3334H2.66659C2.31296 13.3334 1.97382 13.1929 1.72378 12.9429C1.47373 12.6928 1.33325 12.3537 1.33325 12.0001V5.33341H2.66659V12.0001M14.6666 4.00008V9.33342C14.6666 9.68704 14.5261 10.0262 14.2761 10.2762C14.026 10.5263 13.6869 10.6667 13.3333 10.6667H5.33325C4.97963 10.6667 4.64049 10.5263 4.39044 10.2762C4.14039 10.0262 3.99992 9.68704 3.99992 9.33342V4.00008C3.99992 3.64646 4.14039 3.30732 4.39044 3.05727C4.64049 2.80722 4.97963 2.66675 5.33325 2.66675H13.3333C13.6869 2.66675 14.026 2.80722 14.2761 3.05727C14.5261 3.30732 14.6666 3.64646 14.6666 4.00008ZM13.3333 4.00008H5.33325V9.33342H13.3333V4.00008Z" fill="#1A1A1A"/>
</svg>
