<svg width="16" height="16" viewBox="0 0 16 16" fill="none" xmlns="http://www.w3.org/2000/svg">
<path d="M11.2 14.4V7.2H1.6V14.4H11.2ZM12.8 10.4V8.8H14.4V1.6H4.8V5.6H3.2V1.6C3.2 1.16 3.35667 0.783333 3.67 0.47C3.98333 0.156667 4.36 0 4.8 0H14.4C14.84 0 15.2167 0.156667 15.53 0.47C15.8433 0.783333 16 1.16 16 1.6V8.8C16 9.24 15.8433 9.61667 15.53 9.93C15.2167 10.2433 14.84 10.4 14.4 10.4H12.8ZM1.6 16C1.16 16 0.783333 15.8433 0.47 15.53C0.156667 15.2167 0 14.84 0 14.4V7.2C0 6.76 0.156667 6.38333 0.47 6.07C0.783333 5.75667 1.16 5.6 1.6 5.6H11.2C11.64 5.6 12.0167 5.75667 12.33 6.07C12.6433 6.38333 12.8 6.76 12.8 7.2V14.4C12.8 14.84 12.6433 15.2167 12.33 15.53C12.0167 15.8433 11.64 16 11.2 16H1.6Z" fill="white"/>
</svg>
