<svg width="14" height="15" viewBox="0 0 14 15" fill="none" xmlns="http://www.w3.org/2000/svg">
<path fill-rule="evenodd" clip-rule="evenodd" d="M1.84998 7.49961C1.84998 4.66461 4.05998 1.84961 7.49998 1.84961C10.278 1.84961 11.652 3.90561 12.237 4.99961H10.5C10.3674 4.99961 10.2402 5.05229 10.1464 5.14606C10.0527 5.23982 9.99998 5.367 9.99998 5.49961C9.99998 5.63222 10.0527 5.75939 10.1464 5.85316C10.2402 5.94693 10.3674 5.99961 10.5 5.99961H13.5C13.6326 5.99961 13.7598 5.94693 13.8535 5.85316C13.9473 5.75939 14 5.63222 14 5.49961V2.49961C14 2.367 13.9473 2.23982 13.8535 2.14606C13.7598 2.05229 13.6326 1.99961 13.5 1.99961C13.3674 1.99961 13.2402 2.05229 13.1464 2.14606C13.0527 2.23982 13 2.367 13 2.49961V4.31261C12.296 3.07061 10.666 0.849609 7.49998 0.849609C3.43698 0.849609 0.849976 4.18461 0.849976 7.49961C0.849976 10.8146 3.43698 14.1496 7.49998 14.1496C9.44398 14.1496 11.062 13.3796 12.214 12.2076C12.8253 11.5841 13.3102 10.8483 13.642 10.0406C13.6669 9.97987 13.6797 9.91482 13.6795 9.84916C13.6793 9.78349 13.6662 9.71851 13.6409 9.65792C13.6156 9.59733 13.5786 9.54232 13.532 9.49602C13.4854 9.44973 13.4302 9.41306 13.3695 9.38811C13.3087 9.36316 13.2437 9.35041 13.178 9.35061C13.1124 9.3508 13.0474 9.36392 12.9868 9.38922C12.9262 9.41453 12.8712 9.45152 12.8249 9.49808C12.7786 9.54465 12.7419 9.59987 12.717 9.66061C12.4344 10.3486 12.0215 10.9754 11.501 11.5066C10.53 12.4966 9.16498 13.1496 7.49998 13.1496C4.05998 13.1496 1.84998 10.3346 1.84998 7.49961Z" fill="white"/>
</svg>
