<svg width="19" height="19" viewBox="0 0 19 19" fill="none" xmlns="http://www.w3.org/2000/svg">
<path d="M8.75002 14.25H10.25V10.25H14.25V8.75002H10.25V4.75001H8.75002V8.75002H4.75001V10.25H8.75002V14.25ZM9.50167 19C8.18774 19 6.9527 18.7507 5.79656 18.252C4.64041 17.7533 3.63473 17.0766 2.77951 16.2217C1.92427 15.3669 1.24721 14.3616 0.748327 13.206C0.249442 12.0504 0 10.8156 0 9.50167C0 8.18774 0.249334 6.9527 0.748002 5.79656C1.24667 4.64041 1.92342 3.63473 2.77826 2.77951C3.63311 1.92427 4.63835 1.24721 5.79399 0.748328C6.94961 0.249443 8.18439 0 9.49832 0C10.8123 0 12.0473 0.249335 13.2034 0.748003C14.3596 1.24667 15.3653 1.92342 16.2205 2.77826C17.0757 3.63311 17.7528 4.63835 18.2517 5.79399C18.7506 6.94961 19 8.18439 19 9.49833C19 10.8123 18.7507 12.0473 18.252 13.2034C17.7533 14.3596 17.0766 15.3653 16.2217 16.2205C15.3669 17.0757 14.3616 17.7528 13.206 18.2517C12.0504 18.7506 10.8156 19 9.50167 19ZM9.5 17.5C11.7333 17.5 13.625 16.725 15.175 15.175C16.725 13.625 17.5 11.7333 17.5 9.5C17.5 7.26666 16.725 5.37499 15.175 3.82499C13.625 2.27498 11.7333 1.49998 9.5 1.49998C7.26666 1.49998 5.37499 2.27498 3.82498 3.82499C2.27498 5.37499 1.49998 7.26666 1.49998 9.5C1.49998 11.7333 2.27498 13.625 3.82498 15.175C5.37499 16.725 7.26666 17.5 9.5 17.5Z" fill="white"/>
</svg>
