<svg width="32" height="33" viewBox="0 0 32 33" fill="none" xmlns="http://www.w3.org/2000/svg">
<path d="M31.6399 30.5976L23.9519 22.7329C26.1845 19.9937 27.2989 16.4794 27.0631 12.921C26.8274 9.36268 25.2596 6.03432 22.686 3.62834C20.1124 1.22237 16.731 -0.0759634 13.2455 0.00343857C9.75991 0.0828405 6.43845 1.53387 3.97208 4.05465C1.50572 6.57544 0.0843332 9.97189 0.00363347 13.5374C-0.0770662 17.103 1.18913 20.5631 3.53881 23.198C5.88849 25.8328 9.14074 27.4395 12.619 27.6839C16.0972 27.9282 19.5336 26.7913 22.2134 24.5098L29.9014 32.376C30.0156 32.4928 30.1511 32.5854 30.3003 32.6486C30.4494 32.7118 30.6093 32.7444 30.7707 32.7444C30.9321 32.7444 31.092 32.7118 31.2411 32.6486C31.3903 32.5854 31.5258 32.4928 31.6399 32.376C31.7541 32.2593 31.8446 32.1206 31.9064 31.9681C31.9682 31.8155 32 31.652 32 31.4868C32 31.3217 31.9682 31.1582 31.9064 31.0056C31.8446 30.853 31.7541 30.7144 31.6399 30.5976ZM18.4845 15.1479H14.7986V18.9184C14.7986 19.2518 14.6692 19.5715 14.4388 19.8072C14.2084 20.0429 13.8959 20.1753 13.57 20.1753C13.2442 20.1753 12.9317 20.0429 12.7012 19.8072C12.4708 19.5715 12.3414 19.2518 12.3414 18.9184V15.1479H8.65553C8.32968 15.1479 8.01718 15.0155 7.78677 14.7798C7.55635 14.5441 7.42691 14.2244 7.42691 13.8911C7.42691 13.5578 7.55635 13.2381 7.78677 13.0024C8.01718 12.7667 8.32968 12.6342 8.65553 12.6342H12.3414V8.86373C12.3414 8.5304 12.4708 8.21072 12.7012 7.97502C12.9317 7.73931 13.2442 7.6069 13.57 7.6069C13.8959 7.6069 14.2084 7.73931 14.4388 7.97502C14.6692 8.21072 14.7986 8.5304 14.7986 8.86373V12.6342H18.4845C18.8103 12.6342 19.1228 12.7667 19.3533 13.0024C19.5837 13.2381 19.7131 13.5578 19.7131 13.8911C19.7131 14.2244 19.5837 14.5441 19.3533 14.7798C19.1228 15.0155 18.8103 15.1479 18.4845 15.1479Z" fill="#002D7B"/>
</svg>
