<svg width="160" height="26" viewBox="0 0 160 26" fill="none" xmlns="http://www.w3.org/2000/svg">
<g clip-path="url(#clip0_9050_2986)">
<path d="M43.4935 8.99617C43.4935 4.66602 38.4737 4.66602 36.6624 4.66602H32.7881V20.9671H35.457V13.4283H37.1722L41.6403 20.9671H44.675L39.7871 13.0025C41.7003 12.6846 43.4935 11.767 43.4935 9.00217V8.99617ZM37.0523 12.2948H35.457V7.98261C35.457 6.27333 35.457 5.81753 36.9983 5.79953H37.2922C39.3253 5.79953 40.8307 6.52522 40.8307 9.14011C40.8307 11.755 38.6296 12.2948 37.0523 12.2948Z" fill="#F5F5F5"/>
<path d="M54.0611 12.3128V12.2648C55.2486 11.8809 56.9699 10.9573 56.9699 8.58235C56.9699 5.31974 54.0132 4.66602 51.2303 4.66602H46.3364V20.9671H50.8885C52.8736 20.9671 57.7916 20.9671 57.7916 16.6309C57.7916 13.5602 55.7824 12.6546 54.0611 12.3188V12.3128ZM48.9993 7.059C48.9993 5.8715 49.4131 5.79953 50.8645 5.79953C53.0656 5.79953 54.301 6.52523 54.301 8.7083C54.301 11.1073 52.7057 11.785 50.6246 11.785H48.9993V7.059ZM51.3203 19.8276C49.9889 19.8276 48.9933 19.8276 48.9933 18.832V12.9245H51.2004C53.3295 12.9245 55.1227 13.7641 55.1227 16.1691C55.1227 18.5741 53.9832 19.8276 51.3203 19.8276Z" fill="#F5F5F5"/>
<path d="M73.0851 5.52379C72.0356 4.78011 70.5722 4.38428 68.8569 4.38428C66.398 4.38428 64.5328 5.21792 63.3213 6.86722C62.3077 8.24664 61.7739 10.1958 61.7739 12.5048C61.7739 14.9638 62.3497 17.0509 63.4412 18.5443C64.7427 20.3315 66.7218 21.2371 69.3307 21.2371C71.2439 21.2371 72.8512 20.8893 74.1227 20.1936H74.1347V17.9205L74.1047 17.9385C72.7972 18.8741 71.5618 19.4919 69.8045 19.4919C67.9033 19.4919 66.5299 18.6222 65.7202 16.913C65.1505 15.7015 64.8566 14.0762 64.8566 12.067C64.8566 10.9755 64.9706 9.40414 65.5163 8.1027C66.1461 6.59134 67.1956 5.82367 68.635 5.82367C69.6066 5.82367 70.3503 6.15952 70.8541 6.81924C71.2799 7.383 71.5018 8.15667 71.5018 9.06829V9.08628H74.8664V9.06829C74.8664 7.55693 74.2546 6.32745 73.0971 5.5118L73.0851 5.52379Z" fill="#F5F5F5"/>
<path d="M81.0435 9.43994C76.5215 9.43994 75.5679 12.6486 75.5679 15.3414C75.5679 18.0343 76.5155 21.2429 81.0435 21.2429C85.5716 21.2429 86.5432 18.0343 86.5432 15.3414C86.5432 12.6486 85.5896 9.43994 81.0435 9.43994ZM81.0435 20.2114C78.4646 20.2114 78.4646 16.5469 78.4646 15.3414C78.4646 14.1359 78.4646 10.4715 81.0435 10.4715C83.6225 10.4715 83.6524 14.1359 83.6524 15.3414C83.6524 16.5469 83.6524 20.2114 81.0435 20.2114Z" fill="#F5F5F5"/>
<path d="M103.99 14.0099C102.796 13.3981 101.765 12.8763 101.765 12.0127C101.765 11.1491 102.706 10.8492 103.516 10.8492C104.721 10.8492 105.675 11.371 106.622 11.9587L106.652 11.9767V9.90161H106.64C105.489 9.58974 104.589 9.4458 103.726 9.4458C102.502 9.4458 101.453 9.70969 100.691 10.2075C99.8154 10.7832 99.3716 11.6169 99.3716 12.7024C99.3716 14.5136 101.129 15.4313 102.676 16.2409C103.9 16.8826 104.961 17.4344 104.961 18.298C104.961 19.2636 103.9 19.6954 102.85 19.6954C102.184 19.6954 101.111 19.5755 99.4316 18.5199L99.4016 18.502V20.745H99.4136C100.517 21.0809 101.597 21.2428 102.718 21.2428C104.056 21.2428 105.189 20.9789 105.993 20.4871C106.952 19.8994 107.438 18.9997 107.438 17.8242C107.438 15.7611 105.609 14.8315 104.002 14.0099H103.99Z" fill="#F5F5F5"/>
<path d="M116.411 14.3759C116.411 15.1976 116.213 16.463 115.667 17.5606C114.893 19.1079 113.844 19.4318 113.106 19.4318C111.565 19.4318 111.565 17.6265 111.565 16.7569V9.69789H108.902V17.9324C108.902 18.838 109.178 19.6537 109.688 20.2414C110.245 20.8891 111.061 21.231 112.039 21.231C113.928 21.231 115.385 20.2474 116.363 18.3042H116.387V20.9731H119.074V9.69189H116.411V14.3639V14.3759Z" fill="#F5F5F5"/>
<path d="M94.3698 9.43994C91.9708 9.43994 90.6873 11.689 90.3215 12.5406H90.2735V9.71582H87.8745V20.961H90.2735V15.0536C90.2735 13.3383 91.6529 11.0832 93.2542 11.0832C94.8555 11.0832 94.8735 12.7745 94.8735 14.6877V20.961H97.2965V12.8525C97.2965 10.9873 96.5708 9.43994 94.3698 9.43994Z" fill="#F5F5F5"/>
<path d="M123.673 5.64941H121.256V20.9489H123.673V5.64941Z" fill="#F5F5F5"/>
<path d="M129.515 5.64941H127.092V9.6917H125.203V10.6633H127.092V18.0881C127.092 20.847 128.447 21.2188 130.774 21.2188C131.308 21.2188 131.86 21.1228 132.4 21.0149V20.0493C132.112 20.1213 131.794 20.1572 131.5 20.1572C129.635 20.1572 129.515 19.4016 129.515 17.7043V10.6633H132.478V9.6917H129.515V5.64941Z" fill="#F5F5F5"/>
<path d="M136.664 9.69189H134.229V20.9491H136.664V9.69189Z" fill="#F5F5F5"/>
<path d="M136.664 5.64941H134.229V8.01241H136.664V5.64941Z" fill="#F5F5F5"/>
<path d="M145.504 9.42822C143.105 9.42822 141.822 11.6773 141.462 12.5289H141.414V9.70411H139.015V20.9493H141.414V15.0418C141.414 13.3266 142.794 11.0715 144.395 11.0715C145.996 11.0715 146.014 12.7628 146.014 14.676V20.9493H148.437V12.8408C148.437 10.9756 147.711 9.42822 145.51 9.42822H145.504Z" fill="#F5F5F5"/>
<path d="M157.595 9.69211V11.1015H157.547C157.133 10.4478 156.264 9.42822 154.524 9.42822C151.004 9.42822 150.242 12.5589 150.242 15.5756C150.242 18.4124 151.454 21.2192 154.5 21.2192C156.462 21.2192 157.115 20.2536 157.553 19.5219H157.601V21.2792C157.601 23.1084 157.049 24.3439 155.25 24.3439C153.565 24.3439 153.079 23.1624 153.031 22.0708H150.344C150.668 24.3499 152.005 25.2915 155.16 25.2915C159.034 25.2915 160 23.5882 160 20.6075V9.68611H157.595V9.69211ZM157.595 16.4512C157.595 17.7887 157.211 19.9178 155.124 19.9178C153.037 19.9178 152.899 16.961 152.899 15.2398C152.899 13.5185 153.115 10.7357 155.316 10.7357C156.815 10.7357 157.589 12.259 157.589 13.7824V16.4452L157.595 16.4512Z" fill="#F5F5F5"/>
<mask id="mask0_9050_2986" style="mask-type:luminance" maskUnits="userSpaceOnUse" x="0" y="0" width="23" height="26">
<path d="M7.64075 2.95674C7.64075 2.64488 7.59877 1.55934 7.87465 1.32544C8.18652 1.05555 9.6559 1.13352 10.1597 1.13352C13.6142 1.13352 15.4734 2.84279 15.4734 6.29732C15.4734 8.16253 15.1256 9.82982 13.4943 10.8794C11.9829 11.773 10.5855 11.695 8.87623 11.695H7.63476V2.96274L7.64075 2.95674ZM10.1597 0.00599745C8.60634 0.0419822 7.09499 0.119949 5.54764 0.161931C3.68244 0.125946 1.85921 0.0479796 0 0.00599745V0.899618C1.24147 0.899618 2.86678 0.863633 3.2926 2.21906C3.64045 3.26861 3.64045 6.13539 3.64045 7.38286V18.0823C3.64045 19.3238 3.64045 22.1966 3.2926 23.2461C2.86678 24.6075 1.23547 24.8115 0 24.8115V25.7051H11.6351C13.2963 25.7051 15.2455 25.7471 16.9968 25.3272L15.6713 23.6839C14.8077 24.3137 13.6502 24.6555 12.1748 24.6555C10.6995 24.6555 8.76228 24.6915 8.10256 23.0242C7.64075 21.8607 7.64075 19.4557 7.64075 18.1363V12.7386L7.93463 13.1044H12.4747L12.2348 12.8285C13.1704 12.9305 14.082 13.1344 14.8857 13.5542C16.7149 14.5378 17.5186 16.1691 17.6505 18.1123C19.2998 20.0015 21.141 22.1186 21.141 22.1186C21.243 22.2386 21.3329 22.3405 21.4289 22.4425C22.1126 21.4889 22.5264 20.3613 22.5264 19.0659C22.5264 16.8109 21.3629 14.9516 19.5397 13.7102C18.0283 12.6606 16.0492 12.3128 13.8781 12.1208V12.0429C16.8229 11.1493 19.6956 9.63791 19.6956 6.10541C19.6956 1.1875 14.7417 0 10.7474 0C10.5495 0 10.3516 0 10.1537 0.00599745" fill="white"/>
</mask>
<g mask="url(#mask0_9050_2986)">
<path d="M22.5264 0H0V25.7411H22.5264V0Z" fill="url(#paint0_linear_9050_2986)"/>
</g>
<path d="M20.6794 22.5262L11.5932 12.0967H7.11914L18.0765 25.7049H24.4758V24.8113C22.4966 24.4994 21.9149 23.9596 20.6734 22.5202" fill="#1156A6"/>
</g>
<defs>
<linearGradient id="paint0_linear_9050_2986" x1="11.2992" y1="25.3584" x2="11.2992" y2="-0.355768" gradientUnits="userSpaceOnUse">
<stop stop-color="#0075B6"/>
<stop offset="0.34" stop-color="#1850A2"/>
<stop offset="1" stop-color="#1850A2"/>
</linearGradient>
<clipPath id="clip0_9050_2986">
<rect width="160" height="25.7411" fill="white"/>
</clipPath>
</defs>
</svg>
