<svg width="192" height="140" viewBox="0 0 192 140" fill="none" xmlns="http://www.w3.org/2000/svg">
<g clip-path="url(#clip0_895_2984)">
<path d="M6.81571 1.39685C8.43016 1.39685 11.3642 1.53022 13.5051 3.23592C14.4247 3.93785 16.1304 5.72778 16.1304 9.26553C16.1304 10.7045 15.8215 13.2455 13.2454 14.9933C17.3096 15.9971 18.7977 19.5418 18.7977 22.3355C18.7977 25.1292 17.4009 27.4035 15.8285 28.6319C13.5122 30.471 10.8448 30.5552 8.83728 30.5552H1.57227V1.39685H6.81571ZM4.80818 14.2071H7.25793C8.96363 14.2071 12.9857 13.8562 12.9857 9.35678C12.9857 4.54853 8.2617 4.4643 7.34918 4.4643H4.8152V14.2142L4.80818 14.2071ZM4.80818 27.4948H8.52141C10.4026 27.4948 12.2346 27.3614 13.6385 26.2734C14.7756 25.4451 15.5618 23.9991 15.5618 22.2513C15.5618 19.9349 14.2071 18.5802 13.0699 17.9695C11.9749 17.3588 10.4447 17.0921 8.12833 17.0921H4.80818V27.4948Z" fill="#F5F5F5"/>
<path d="M29.5794 1.39685V30.5552H26.3435V1.39685H29.5794Z" fill="#F5F5F5"/>
<path d="M53.7752 15.9129H65.9257V16.6148C65.9257 19.8507 64.964 23.3463 63.1249 25.8382C62.2475 27.0175 58.9695 31.0817 52.2871 31.0817C43.6322 31.0817 37.1604 24.4835 37.1604 16.0041C37.1604 7.52475 43.6814 0.919556 52.3783 0.919556C55.179 0.919556 58.4571 1.62149 61.2929 3.8045C62.6055 4.80827 63.8269 6.12089 64.6552 7.25802L62.2545 9.44103C61.4263 8.26178 60.4646 7.20888 59.503 6.42272C58.1061 5.28558 55.9161 3.97297 52.4204 3.97297C45.38 3.97297 40.4876 9.25853 40.4876 16.0392C40.4876 23.9921 46.826 28.0142 52.3362 28.0142C56.2249 28.0142 59.5942 26.0488 61.2508 23.1217C61.7772 22.2022 62.3458 20.8053 62.43 18.9663H53.7752V15.9058V15.9129Z" fill="#F5F5F5"/>
<path d="M86.4292 1.39685H92.3746C95.3017 1.39685 99.4571 1.7057 103.128 4.80825C105.796 7.0404 108.112 10.7536 108.112 15.9971C108.112 22.1179 105.094 25.396 102.995 27.1859C100.327 29.4602 97.5338 30.5482 92.3325 30.5482H86.4292V1.39685ZM89.6651 27.4948H92.5079C94.8243 27.4948 98.0181 27.235 100.854 24.8695C103.037 23.0305 104.785 20.1525 104.785 15.9971C104.785 9.00582 99.8923 4.45728 92.5009 4.45728H89.6581V27.4948H89.6651Z" fill="#F5F5F5"/>
<path d="M130.209 22.3355H117.791L114.296 30.5552H110.709L124.13 0L137.2 30.5552H133.613L130.202 22.3355H130.209ZM128.938 19.2751L124.046 7.60194L119.062 19.2751H128.938Z" fill="#F5F5F5"/>
<path d="M147.926 4.45728V30.5552H144.69V4.45728H137.607V1.39685H155.001V4.45728H147.919H147.926Z" fill="#F5F5F5"/>
<path d="M174.859 22.3355H162.442L158.946 30.5552H155.359L168.787 0L181.857 30.5552H178.27L174.859 22.3355ZM173.595 19.2751L168.703 7.60194L163.719 19.2751H173.595Z" fill="#F5F5F5"/>
<path d="M1.57227 55.6353H7.51765C10.4447 55.6353 14.6002 55.9442 18.2713 59.0467C20.9386 61.2789 23.255 64.9921 23.255 70.2355C23.255 76.3564 20.2367 79.6344 18.1379 81.4244C15.4706 83.6986 12.6769 84.7866 7.47553 84.7866H1.57227V55.6283V55.6353ZM4.80818 81.7332H7.65101C9.96739 81.7332 13.1612 81.4735 15.997 79.108C18.18 77.2689 19.9278 74.391 19.9278 70.2355C19.9278 63.2443 15.0354 58.6957 7.64399 58.6957H4.80116V81.7332H4.80818Z" fill="#F5F5F5"/>
<path d="M35.5248 55.6353C37.4902 55.6353 40.4173 55.7687 42.6073 57.2498C44.313 58.3869 45.8011 60.612 45.8011 63.7216C45.8011 68.1789 42.874 71.4569 38.4589 71.7658L47.7244 84.7937H43.7936L34.9211 72.0325H34.0928V84.7937H30.8569V55.6353H35.5318H35.5248ZM34.0858 69.1475H36.1425C40.1646 69.1475 42.5652 67.2242 42.5652 63.8128C42.5652 62.1984 42.0879 60.5769 40.2488 59.531C38.9362 58.787 37.4481 58.7028 36.0512 58.7028H34.0858V69.1475Z" fill="#F5F5F5"/>
<path d="M57.327 55.6353V84.7937H54.0911V55.6353H57.327Z" fill="#F5F5F5"/>
<path d="M66.5433 55.6353L74.763 77.8866L82.9826 55.6353H86.5695L74.77 86.5415L62.9705 55.6353H66.5573H66.5433Z" fill="#F5F5F5"/>
<path d="M107.375 58.6957H95.484V67.3506H107.024V70.411H95.484V81.7332H107.375V84.7937H92.248V55.6353H107.375V58.6957Z" fill="#F5F5F5"/>
<path d="M114.949 84.7936V54.4139L137.677 78.2376V55.6423H140.913V86.1063L118.185 62.2826V84.7936H114.949Z" fill="#F5F5F5"/>
<path d="M14.6003 115.644C14.2072 114.857 13.5544 113.98 12.8946 113.461C12.326 113.025 11.2801 112.457 9.61656 112.457C6.73161 112.457 4.72408 114.247 4.72408 116.956C4.72408 118.093 5.03293 118.746 5.81909 119.49C6.69651 120.368 7.78451 120.845 8.87953 121.329L11.6802 122.551C13.3859 123.295 14.9583 124.081 16.1796 125.302C17.6677 126.79 18.2784 128.489 18.2784 130.588C18.2784 135.965 14.2985 139.552 9.05501 139.552C7.13171 139.552 4.72408 139.158 2.71655 137.193C1.27056 135.796 0.400163 133.782 0.00708008 132.034L3.15174 131.156C3.36934 132.687 4.07128 133.999 4.89956 134.87C6.17006 136.14 7.60903 136.484 9.09713 136.484C13.0771 136.484 14.9513 133.641 14.9513 130.714C14.9513 129.402 14.5582 128.264 13.5123 127.303C12.684 126.517 11.5469 125.99 10.0167 125.295L7.39143 124.074C6.25429 123.547 4.81533 122.937 3.50271 121.673C2.23221 120.452 1.48816 119.097 1.48816 116.907C1.48816 112.408 4.94168 109.389 9.65867 109.389C11.4486 109.389 12.8946 109.74 14.3336 110.702C15.5128 111.488 16.5166 112.667 17.1764 113.938L14.6003 115.644Z" fill="#F5F5F5"/>
<path d="M32.9136 112.934V139.032H29.6777V112.934H22.5952V109.874H39.9891V112.934H32.9066H32.9136Z" fill="#F5F5F5"/>
<path d="M50.455 109.874C52.4204 109.874 55.3474 110.007 57.5375 111.488C59.2432 112.625 60.7313 114.85 60.7313 117.96C60.7313 122.417 57.8042 125.695 53.3891 126.004L62.6546 139.032H58.7238L49.8513 126.271H49.023V139.032H45.7871V109.874H50.462H50.455ZM49.016 123.386H51.0727C55.0948 123.386 57.4954 121.463 57.4954 118.051C57.4954 116.437 57.0181 114.815 55.179 113.769C53.8664 113.025 52.3783 112.941 50.9814 112.941H49.016V123.386Z" fill="#F5F5F5"/>
<path d="M86.7099 130.812H74.2927L70.7971 139.032H67.2102L80.6312 108.477L93.7012 139.032H90.1143L86.7029 130.812H86.7099ZM85.4465 127.752L80.554 116.079L75.5702 127.752H85.4465Z" fill="#F5F5F5"/>
<path d="M104.427 112.934V139.032H101.191V112.934H94.1084V109.874H111.502V112.934H104.42H104.427Z" fill="#F5F5F5"/>
<path d="M132.413 112.934H120.522V121.589H132.062V124.649H120.522V135.972H132.413V139.032H117.286V109.874H132.413V112.934Z" fill="#F5F5F5"/>
<path d="M154.643 124.39H166.794V125.092C166.794 128.328 165.832 131.823 163.993 134.315C163.115 135.494 159.837 139.559 153.155 139.559C144.5 139.559 138.028 132.96 138.028 124.481C138.028 116.002 144.542 109.403 153.239 109.403C156.04 109.403 159.318 110.105 162.154 112.288C163.466 113.292 164.688 114.605 165.516 115.742L163.115 117.925C162.287 116.746 161.326 115.693 160.364 114.907C158.967 113.769 156.777 112.457 153.281 112.457C146.241 112.457 141.348 117.749 141.348 124.523C141.348 132.476 147.687 136.498 153.197 136.498C157.086 136.498 160.455 134.533 162.112 131.606C162.638 130.686 163.207 129.289 163.291 127.45H154.636V124.39H154.643Z" fill="#F5F5F5"/>
<path d="M179.105 126.488L169.531 109.881H173.293L180.727 122.909L188.245 109.881H192.007L182.348 126.488V139.032H179.112V126.488H179.105Z" fill="#F5F5F5"/>
</g>
<defs>
<clipPath id="clip0_895_2984">
<rect width="192" height="139.559" fill="white"/>
</clipPath>
</defs>
</svg>
