<svg width="343" height="248" viewBox="0 0 343 248" fill="none" xmlns="http://www.w3.org/2000/svg">
<g clip-path="url(#clip0_54635_2483)">
<path d="M12.1763 2.48218C15.0604 2.48218 20.302 2.71918 24.1267 5.75026C25.7694 6.99762 28.8165 10.1784 28.8165 16.4651C28.8165 19.0222 28.2648 23.5376 23.6627 26.6435C30.9232 28.4273 33.5817 34.7264 33.5817 39.6909C33.5817 44.6554 31.0862 48.6968 28.2773 50.8797C24.1392 54.1478 19.3741 54.2975 15.7877 54.2975H2.80908V2.48218H12.1763ZM8.58991 25.2465H12.9663C16.0134 25.2465 23.1987 24.6228 23.1987 16.6272C23.1987 8.08282 14.7595 7.93314 13.1293 7.93314H8.60245V25.259L8.58991 25.2465ZM8.58991 48.859H15.2234C18.5841 48.859 21.857 48.622 24.3649 46.6886C26.3964 45.2167 27.8008 42.6472 27.8008 39.5412C27.8008 35.4249 25.3806 33.0175 23.3492 31.9323C21.393 30.8471 18.6593 30.3731 14.5212 30.3731H8.58991V48.859Z" fill="#F5F5F5"/>
<path d="M52.8424 2.48218V54.2975H47.0615V2.48218H52.8424Z" fill="#F5F5F5"/>
<path d="M96.0669 28.2776H117.773V29.525C117.773 35.2753 116.055 41.4872 112.77 45.9153C111.202 48.0109 105.346 55.2331 93.4084 55.2331C77.9469 55.2331 66.3853 43.5079 66.3853 28.4398C66.3853 13.3717 78.0347 1.63403 93.5715 1.63403C98.5748 1.63403 104.431 2.88139 109.497 6.76068C111.842 8.5444 114.024 10.877 115.503 12.8977L111.215 16.777C109.735 14.6814 108.017 12.8104 106.299 11.4133C103.804 9.39261 99.8915 7.06005 93.6467 7.06005C81.0693 7.06005 72.3291 16.4527 72.3291 28.5022C72.3291 42.6347 83.6525 49.7821 93.4962 49.7821C100.443 49.7821 106.462 46.2895 109.422 41.088C110.362 39.454 111.378 36.9717 111.528 33.7036H96.0669V28.2652V28.2776Z" fill="#F5F5F5"/>
<path d="M154.402 2.48218H165.023C170.252 2.48218 177.676 3.03102 184.234 8.54434C188.999 12.5109 193.137 19.1095 193.137 28.4273C193.137 39.3042 187.745 45.1294 183.996 48.3102C179.231 52.3516 174.24 54.285 164.948 54.285H154.402V2.48218ZM160.183 48.859H165.261C169.399 48.859 175.105 48.3975 180.171 44.1939C184.071 40.9258 187.193 35.8116 187.193 28.4273C187.193 16.0036 178.453 7.92066 165.249 7.92066H160.17V48.859H160.183Z" fill="#F5F5F5"/>
<path d="M232.612 39.691H210.429L204.185 54.2976H197.777L221.753 0L245.102 54.2976H238.694L232.6 39.691H232.612ZM230.343 34.2525L221.602 13.5089L212.699 34.2525H230.343Z" fill="#F5F5F5"/>
<path d="M264.263 7.92066V54.2975H258.482V7.92066H245.83V2.48218H276.903V7.92066H264.25H264.263Z" fill="#F5F5F5"/>
<path d="M312.378 39.691H290.195L283.95 54.2976H277.542L301.531 0L324.88 54.2976H318.472L312.378 39.691ZM310.121 34.2525L301.381 13.5089L292.477 34.2525H310.121Z" fill="#F5F5F5"/>
<path d="M2.80859 88.866H13.4298C18.6588 88.866 26.0824 89.4148 32.6407 94.9282C37.4058 98.8948 41.5439 105.493 41.5439 114.811C41.5439 125.688 36.1518 131.513 32.4024 134.694C27.6373 138.735 22.6465 140.669 13.3545 140.669H2.80859V88.8535V88.866ZM8.58942 135.243H13.668C17.8061 135.243 23.5117 134.781 28.5778 130.578C32.4777 127.31 35.6001 122.195 35.6001 114.811C35.6001 102.387 26.8598 94.3045 13.6555 94.3045H8.57688V135.243H8.58942Z" fill="#F5F5F5"/>
<path d="M63.4639 88.8652C66.9751 88.8652 72.2042 89.1022 76.1166 91.7342C79.1637 93.7549 81.8221 97.709 81.8221 103.235C81.8221 111.156 76.5931 116.981 68.7056 117.53L85.258 140.681H78.2358L62.3855 118.004H60.9058V140.681H55.125V88.8652H63.4765H63.4639ZM60.8933 112.877H64.5674C71.7527 112.877 76.0413 109.459 76.0413 103.397C76.0413 100.528 75.1886 97.6466 71.9032 95.7881C69.5583 94.4659 66.8998 94.3162 64.4044 94.3162H60.8933V112.877Z" fill="#F5F5F5"/>
<path d="M102.412 88.8652V140.681H96.6313V88.8652H102.412Z" fill="#F5F5F5"/>
<path d="M118.877 88.8652L133.561 128.407L148.245 88.8652H154.653L133.573 143.786L112.494 88.8652H118.902H118.877Z" fill="#F5F5F5"/>
<path d="M191.821 94.3037H170.578V109.684H191.194V115.122H170.578V135.242H191.821V140.681H164.797V88.8652H191.821V94.3037Z" fill="#F5F5F5"/>
<path d="M205.351 140.681V86.6953L245.955 129.031V88.8782H251.736V143.014L211.132 100.678V140.681H205.351Z" fill="#F5F5F5"/>
<path d="M26.0829 185.503C25.3806 184.106 24.2144 182.546 23.0357 181.623C22.02 180.85 20.1515 179.84 17.1796 179.84C12.0258 179.84 8.43941 183.02 8.43941 187.835C8.43941 189.856 8.99116 191.016 10.3956 192.338C11.9631 193.897 13.9067 194.746 15.8629 195.606L20.8663 197.777C23.9135 199.099 26.7224 200.496 28.9043 202.666C31.5627 205.311 32.6537 208.329 32.6537 212.059C32.6537 221.614 25.5436 227.988 16.1764 227.988C12.7405 227.988 8.43941 227.289 4.85304 223.797C2.26985 221.314 0.714922 217.734 0.0126953 214.628L5.63051 213.069C6.01924 215.789 7.27322 218.121 8.75291 219.668C11.0226 221.926 13.5933 222.537 16.2517 222.537C23.3617 222.537 26.7098 217.485 26.7098 212.283C26.7098 209.951 26.0076 207.93 24.1392 206.221C22.6595 204.824 20.6281 203.889 17.8944 202.654L13.2045 200.483C11.1731 199.548 8.60243 198.463 6.25749 196.217C3.9878 194.047 2.65858 191.64 2.65858 187.748C2.65858 179.752 8.82815 174.389 17.2549 174.389C20.4525 174.389 23.0357 175.012 25.6063 176.721C27.713 178.118 29.5062 180.214 30.6849 182.472L26.0829 185.503Z" fill="#F5F5F5"/>
<path d="M58.7987 180.688V227.064H53.0178V180.688H40.3652V175.249H71.4388V180.688H58.7861H58.7987Z" fill="#F5F5F5"/>
<path d="M90.1358 175.249C93.6469 175.249 98.876 175.486 102.788 178.118C105.836 180.139 108.494 184.093 108.494 189.619C108.494 197.539 103.265 203.364 95.3774 203.913L111.93 227.064H104.908L89.0574 204.387H87.5777V227.064H81.7969V175.249H90.1483H90.1358ZM87.5652 199.261H91.2393C98.4246 199.261 102.713 195.843 102.713 189.781C102.713 186.912 101.86 184.03 98.5751 182.172C96.2301 180.85 93.5717 180.7 91.0763 180.7H87.5652V199.261Z" fill="#F5F5F5"/>
<path d="M154.904 212.458H132.721L126.476 227.064H120.068L144.044 172.767L167.393 227.064H160.986L154.891 212.458H154.904ZM152.647 207.019L143.906 186.276L135.003 207.019H152.647Z" fill="#F5F5F5"/>
<path d="M186.554 180.688V227.064H180.773V180.688H168.121V175.249H199.194V180.688H186.541H186.554Z" fill="#F5F5F5"/>
<path d="M236.55 180.688H215.308V196.067H235.923V201.506H215.308V221.626H236.55V227.064H209.527V175.249H236.55V180.688Z" fill="#F5F5F5"/>
<path d="M276.264 201.044H297.97V202.292C297.97 208.042 296.252 214.254 292.967 218.682C291.399 220.777 285.543 228 273.605 228C258.144 228 246.582 216.274 246.582 201.206C246.582 186.138 258.219 174.413 273.756 174.413C278.759 174.413 284.615 175.66 289.681 179.54C292.026 181.323 294.208 183.656 295.688 185.677L291.399 189.556C289.919 187.46 288.201 185.589 286.484 184.192C283.988 182.172 280.076 179.839 273.831 179.839C261.254 179.839 252.513 189.244 252.513 201.281C252.513 215.414 263.837 222.561 273.68 222.561C280.627 222.561 286.647 219.069 289.606 213.867C290.546 212.233 291.562 209.751 291.713 206.483H276.251V201.044H276.264Z" fill="#F5F5F5"/>
<path d="M319.965 204.774L302.86 175.262H309.582L322.861 198.413L336.291 175.262H343.013L325.758 204.774V227.065H319.977V204.774H319.965Z" fill="#F5F5F5"/>
</g>
<defs>
<clipPath id="clip0_54635_2483">
<rect width="343" height="248" fill="white"/>
</clipPath>
</defs>
</svg>
