<svg width="140" height="23" viewBox="0 0 140 23" fill="none" xmlns="http://www.w3.org/2000/svg">
<g clip-path="url(#clip0_54648_1382)">
<path d="M11.6278 5.29772C11.6278 0.592163 6.17556 0.592163 4.20778 0.592163H0V18.2944H2.90111V10.1044H4.76L9.61333 18.2944H12.9111L7.60667 9.6455C9.68333 9.2955 11.6278 8.30772 11.6278 5.29772ZM4.62778 8.8755H2.90111V4.19327C2.90111 2.33439 2.90111 1.84439 4.57333 1.82105H4.89222C7.10111 1.82105 8.73444 2.61439 8.73444 5.45327C8.73444 8.29216 6.33889 8.8755 4.62778 8.8755Z" fill="#F5F5F5"/>
<path d="M23.1002 8.89883V8.84439C24.3913 8.42439 26.258 7.42105 26.258 4.83883C26.258 1.29994 23.0458 0.592163 20.0202 0.592163H14.708V18.2944H19.6547C21.8091 18.2944 27.1525 18.2944 27.1525 13.5888C27.1525 10.2522 24.9669 9.27216 23.1002 8.90661V8.89883ZM17.6013 3.18994C17.6013 1.89883 18.0525 1.82105 19.6313 1.82105C22.0269 1.82105 23.3647 2.61439 23.3647 4.97883C23.3647 7.58439 21.6302 8.3155 19.3747 8.3155H17.6091V3.18994H17.6013ZM20.1291 17.0655C18.6825 17.0655 17.6013 17.0655 17.6013 15.9844V9.56772H19.9969C22.3147 9.56772 24.2591 10.4777 24.2591 13.0911C24.2591 15.7044 23.0225 17.0655 20.1291 17.0655Z" fill="#F5F5F5"/>
<path d="M41.0124 0.273315C38.3369 0.273315 36.3069 1.18332 34.9847 2.97998C33.8802 4.48109 33.2969 6.59665 33.2969 9.11665C33.2969 11.7922 33.9269 14.0633 35.1091 15.6889C36.5247 17.6333 38.6869 18.6211 41.518 18.6211C43.5947 18.6211 45.3524 18.24 46.7291 17.4855H46.7524V14.9655L46.6902 15.0122C45.2747 16.0233 43.9369 16.7 42.0313 16.7C39.978 16.7 38.4924 15.7589 37.6135 13.9155C36.9913 12.6089 36.6802 10.8355 36.6802 8.65776C36.6802 6.62776 37.0769 1.89887 40.7635 1.89887C42.7002 1.89887 43.8591 3.20554 43.8591 5.39887V5.43776H47.5458V5.39887C47.5458 1.62665 44.1702 0.281093 41.0124 0.281093V0.273315Z" fill="#F5F5F5"/>
<path d="M54.2502 5.7644C49.3191 5.7644 48.2847 9.25663 48.2847 12.1888C48.2847 15.1211 49.3191 18.6133 54.2502 18.6133C59.1813 18.6133 60.2391 15.1211 60.2391 12.1888C60.2391 9.25663 59.1969 5.7644 54.2502 5.7644ZM57.058 12.1888C57.058 13.4955 57.058 17.4622 54.2502 17.4622C51.4424 17.4622 51.4658 13.4955 51.4658 12.1888C51.4658 10.8822 51.4658 6.91552 54.2502 6.91552C57.0347 6.91552 57.058 10.8822 57.058 12.1888Z" fill="#F5F5F5"/>
<path d="M79.1777 10.7266C77.8866 10.0655 76.7743 9.49774 76.7743 8.57218C76.7743 7.64663 77.7854 7.32774 78.6565 7.32774C79.9632 7.32774 80.9977 7.89552 82.0243 8.52552L82.0866 8.5644V6.26218H82.0554C80.8032 5.91218 79.8232 5.7644 78.8821 5.7644C76.5877 5.7644 74.1299 6.69774 74.1299 9.31885C74.1299 11.2944 76.0432 12.2977 77.7232 13.1766C79.0454 13.8688 80.1966 14.4677 80.1966 15.3933C80.1966 16.4277 79.0532 16.8944 77.9254 16.8944C76.4399 16.8944 75.1643 16.21 74.2232 15.6188L74.161 15.58V18.0688H74.1921C75.3899 18.4422 76.5643 18.6211 77.7854 18.6211C81.0599 18.6211 82.9343 17.26 82.9343 14.8877C82.9343 12.64 80.9432 11.6211 79.1854 10.7266H79.1777Z" fill="#F5F5F5"/>
<path d="M92.6335 11.1389C92.6335 12.0255 92.4235 13.4022 91.8246 14.5922C91.3657 15.5178 90.5102 16.6144 89.0557 16.6144C87.3991 16.6144 87.3991 14.6622 87.3991 13.7289V6.04443H84.4746V15.0122C84.4746 16.8089 85.5324 18.6133 87.8968 18.6133C89.9502 18.6133 91.5291 17.5478 92.5946 15.4478V18.3333H95.5502V6.04443H92.6257V11.1389H92.6335Z" fill="#F5F5F5"/>
<path d="M68.7244 5.78003C66.1188 5.78003 64.7266 8.22225 64.3299 9.14781H64.2755V6.08336H61.6699V18.2945H64.2755V11.8778C64.2755 10.0111 65.7766 7.56892 67.511 7.56892C69.2455 7.56892 69.2688 9.41225 69.2688 11.4889V18.3023H71.8977V9.49781C71.8977 7.47558 71.1044 5.78781 68.7166 5.78781L68.7244 5.78003Z" fill="#F5F5F5"/>
<path d="M100.551 1.66553H97.9224V18.2866H100.551V1.66553Z" fill="#F5F5F5"/>
<path d="M106.89 1.66553H104.261V6.05997H102.215V7.11775H104.261V15.1833C104.261 18.1855 105.739 18.5822 108.259 18.5822C108.834 18.5822 109.441 18.4733 110.024 18.3644V17.3144C109.705 17.3922 109.371 17.4311 109.052 17.4311C107.03 17.4311 106.898 16.6066 106.898 14.7711V7.12553H110.11V6.06775H106.898V1.66553H106.89Z" fill="#F5F5F5"/>
<path d="M114.66 6.05994H112.016V18.2866H114.66V6.05994Z" fill="#F5F5F5"/>
<path d="M114.66 1.66553H112.016V4.23219H114.66V1.66553Z" fill="#F5F5F5"/>
<path d="M124.258 5.77222C121.652 5.77222 120.26 8.21444 119.863 9.13999H119.809V6.07555H117.203V18.2867H119.809V11.87C119.809 10.0033 121.31 7.56111 123.044 7.56111C124.779 7.56111 124.802 9.40444 124.802 11.4811V18.2944H127.431V9.48999C127.431 7.46777 126.638 5.77999 124.25 5.77999L124.258 5.77222Z" fill="#F5F5F5"/>
<path d="M137.387 6.05999V7.58444H137.332C136.889 6.87666 135.94 5.77222 134.05 5.77222C130.223 5.77222 129.399 9.17888 129.399 12.4533C129.399 15.5333 130.713 18.5822 134.027 18.5822C136.158 18.5822 136.866 17.5322 137.34 16.7389H137.394V18.6444C137.394 20.6278 136.796 21.9733 134.843 21.9733C133.016 21.9733 132.487 20.69 132.432 19.5078H129.516C129.873 21.9811 131.32 23.0078 134.75 23.0078C138.958 23.0078 140.008 21.1567 140.008 17.9211V6.05999H137.394H137.387ZM137.387 13.3944C137.387 14.8411 136.967 17.1589 134.703 17.1589C132.44 17.1589 132.284 13.9544 132.284 12.08C132.284 10.2056 132.518 7.18777 134.913 7.18777C136.547 7.18777 137.387 8.84444 137.387 10.5011V13.3944Z" fill="#F5F5F5"/>
</g>
<defs>
<clipPath id="clip0_54648_1382">
<rect width="140" height="22.7267" fill="white" transform="translate(0 0.273315)"/>
</clipPath>
</defs>
</svg>
